<svg width="201" height="201" viewBox="0 0 201 201" fill="none" xmlns="http://www.w3.org/2000/svg">
<circle cx="100.5" cy="100.5" r="100.5" fill="black"/>
<path d="M103.001 174.928H95.4039V172.593H103.001V174.928ZM102.782 168.379H94.1596V166H105.62V181.281H94.4652V178.901H102.782V168.379Z" fill="white"/>
<path d="M91.9215 165.682L85.4337 171.053L85.8017 169.636L89.136 177.003L86.1777 176.328L83.8564 171.096L84.9844 171.353L80.6017 175.055L77.7286 174.399L83.9714 169.219L83.6246 170.64L80.131 162.991L83.1318 163.676L85.5602 169.223L84.4875 168.821L88.9845 165.011L91.9215 165.682Z" fill="white"/>
<path d="M71.7699 159.044C72.6222 159.455 73.3076 160.027 73.8263 160.761C74.3318 161.489 74.6049 162.348 74.6456 163.336C74.6669 164.332 74.3839 165.44 73.7967 166.659C73.2031 167.892 72.5202 168.806 71.748 169.404C70.9627 169.995 70.131 170.313 69.2529 170.359C68.3686 170.417 67.4806 170.232 66.589 169.803C65.5531 169.304 64.7492 168.642 64.1771 167.817C63.592 166.986 63.2626 166.06 63.1888 165.04C63.102 164.012 63.3206 162.955 63.8447 161.866C64.3688 160.778 65.0626 159.941 65.9261 159.355C66.7702 158.777 67.6995 158.457 68.714 158.396C69.7154 158.329 70.7341 158.545 71.7699 159.044ZM79.3628 158.17L72.4675 172.488L70.127 171.361L71.3204 168.883L72.7441 166.128L73.8924 163.24L76.9043 156.986L79.3628 158.17ZM71.0318 161.281C70.4418 160.997 69.8541 160.876 69.2689 160.917C68.6706 160.952 68.1138 161.152 67.5985 161.518C67.0832 161.883 66.6646 162.401 66.3425 163.069C66.0142 163.751 65.8709 164.401 65.9126 165.019C65.948 165.649 66.1386 166.21 66.4843 166.699C66.8169 167.182 67.2783 167.566 67.8683 167.85C68.4583 168.134 69.0525 168.259 69.6508 168.224C70.2492 168.189 70.806 167.989 71.3213 167.623C71.8302 167.271 72.2489 166.754 72.5773 166.072C72.8993 165.403 73.0426 164.753 73.0072 164.122C72.9718 163.492 72.7812 162.931 72.4355 162.442C72.0897 161.952 71.6218 161.565 71.0318 161.281Z" fill="white"/>
<path d="M61.6143 152.922L51.5152 165.586L49.3818 163.884L59.4809 151.22L61.6143 152.922Z" fill="white"/>
<path d="M49.5723 140.738C50.3164 141.671 50.7797 142.661 50.9621 143.707C51.1332 144.762 51.0339 145.781 50.6642 146.764C50.2945 147.748 49.6602 148.598 48.7613 149.315C47.8511 150.041 46.8811 150.47 45.8513 150.603C44.8101 150.744 43.8 150.61 42.8211 150.199C41.8421 149.788 40.9806 149.117 40.2366 148.184C39.4834 147.239 39.0156 146.244 38.8332 145.198C38.6416 144.141 38.7295 143.131 39.0969 142.168C39.4553 141.193 40.0953 140.339 41.0169 139.604C41.9158 138.887 42.8858 138.458 43.927 138.316C44.9591 138.163 45.9748 138.293 46.9742 138.706C47.9532 139.117 48.8192 139.794 49.5723 140.738ZM47.7461 142.195C47.3288 141.671 46.8429 141.296 46.2887 141.068C45.7345 140.839 45.1505 140.784 44.5366 140.901C43.9137 141.007 43.3121 141.291 42.7318 141.754C42.1402 142.226 41.7291 142.749 41.4987 143.324C41.2478 143.896 41.1719 144.478 41.271 145.069C41.3701 145.66 41.6238 146.212 42.0321 146.724C42.4495 147.247 42.9353 147.623 43.4895 147.851C44.0346 148.068 44.6187 148.123 45.2416 148.017C45.8531 147.921 46.4547 147.636 47.0464 147.164C47.6267 146.702 48.0377 146.178 48.2796 145.595C48.5214 145.011 48.5973 144.429 48.5073 143.849C48.4082 143.258 48.1545 142.707 47.7461 142.195Z" fill="white"/>
<path d="M43.4475 131.513L32.9448 136.571L31.8177 134.231L34.7089 132.838L33.9958 133.521C33.1362 133.547 32.3618 133.314 31.6726 132.823C30.9771 132.318 30.3863 131.56 29.9001 130.551L32.2406 129.424C32.2649 129.541 32.2991 129.646 32.3433 129.737C32.3744 129.836 32.412 129.931 32.4562 130.022C32.9046 130.953 33.5367 131.561 34.3526 131.847C35.1554 132.139 36.0944 132.026 37.1696 131.508L42.2636 129.055L43.4475 131.513Z" fill="white"/>
<path d="M37.6018 114.734C37.89 115.997 37.8943 117.16 37.6147 118.224C37.3176 119.277 36.7892 120.166 36.0293 120.892C35.2662 121.604 34.3242 122.087 33.2034 122.343C32.0683 122.602 31.0113 122.582 30.0325 122.283C29.0363 121.973 28.1894 121.435 27.4921 120.669C26.7915 119.888 26.3116 118.931 26.0526 117.795C25.8 116.689 25.8161 115.648 26.101 114.672C26.3858 113.696 26.9114 112.86 27.6777 112.163C28.4441 111.465 29.4232 110.981 30.615 110.709C30.7285 110.683 30.8578 110.661 31.0029 110.642C31.1448 110.61 31.2812 110.586 31.4121 110.571L33.5738 120.042L31.8073 120.445L29.9663 112.379L30.7577 113.296C30.1018 113.43 29.5579 113.696 29.1261 114.094C28.6942 114.491 28.3931 114.97 28.2227 115.531C28.049 116.078 28.0351 116.671 28.1808 117.31C28.3298 117.962 28.6028 118.505 28.9999 118.936C29.3938 119.354 29.8785 119.646 30.454 119.814C31.0122 119.97 31.6317 119.97 32.3128 119.815L32.7384 119.718C33.4195 119.562 33.9869 119.269 34.4406 118.837C34.8943 118.405 35.1983 117.873 35.3525 117.24C35.5067 116.608 35.4997 115.923 35.3313 115.185C35.1855 114.547 34.9551 113.995 34.6398 113.529C34.3246 113.064 33.9088 112.681 33.3925 112.381L34.7058 110.581C35.4183 110.956 36.0268 111.496 36.5312 112.202C37.0182 112.897 37.3751 113.741 37.6018 114.734Z" fill="white"/>
<path d="M35.9473 94.8277L21.0496 91.4274L21.5694 89.1502L33.9311 85.12L33.6591 86.3118L24.2459 77.4236L24.7657 75.1463L39.6683 78.5254L39.0708 81.1431L28.2757 78.7016L28.402 78.1483L36.2461 85.6708L35.9643 86.9051L25.6137 90.3644L25.7595 89.7259L36.5497 92.1887L35.9473 94.8277Z" fill="white"/>
<path d="M43.0975 72.5652C42.5798 73.6404 41.8893 74.4871 41.0263 75.1052C40.1502 75.7171 39.1888 76.0698 38.1422 76.1635C37.0956 76.2571 36.0544 76.0545 35.0186 75.5557C33.9696 75.0506 33.162 74.3628 32.5959 73.4925C32.0165 72.6159 31.6995 71.6475 31.6447 70.5873C31.5899 69.5271 31.8214 68.4594 32.3392 67.3843C32.8633 66.296 33.5568 65.4427 34.4199 64.8246C35.2892 64.1933 36.2375 63.8342 37.2646 63.7474C38.2981 63.6474 39.3458 63.8532 40.4079 64.3646C41.4438 64.8635 42.2513 65.5512 42.8307 66.4278C43.4163 67.2914 43.7399 68.2629 43.8015 69.3425C43.8563 70.4027 43.6216 71.4769 43.0975 72.5652ZM40.9931 71.5518C41.2835 70.9486 41.4113 70.3479 41.3764 69.7496C41.3415 69.1512 41.138 68.601 40.766 68.0988C40.4004 67.5835 39.8832 67.1648 39.2145 66.8428C38.5327 66.5145 37.8829 66.3711 37.2651 66.4129C36.6406 66.4351 36.0836 66.6192 35.594 66.9649C35.1044 67.3107 34.7176 67.7785 34.4334 68.3686C34.143 68.9717 34.0152 69.5725 34.0501 70.1708C34.0914 70.756 34.2948 71.3062 34.6605 71.8215C35.013 72.3305 35.5302 72.7492 36.212 73.0775C36.8807 73.3996 37.5305 73.5429 38.1614 73.5075C38.7922 73.4721 39.3493 73.2881 39.8325 72.9554C40.3221 72.6097 40.7089 72.1418 40.9931 71.5518Z" fill="white"/>
<path d="M48.7522 63.0447L39.6383 55.7766L41.258 53.7456L43.7669 55.7464L42.8424 55.4001C42.4458 54.637 42.3195 53.8383 42.4637 53.0039C42.617 52.1582 43.0429 51.2973 43.7416 50.4212L45.7726 52.0408C45.6772 52.1137 45.5978 52.19 45.5343 52.2696C45.4594 52.3402 45.3902 52.4153 45.3267 52.495C44.6824 53.3028 44.4087 54.1362 44.5055 54.9952C44.5909 55.8451 45.1001 56.6421 46.0331 57.3861L50.4535 60.9113L48.7522 63.0447Z" fill="white"/>
<path d="M61.3337 50.4977C60.3211 51.3053 59.2748 51.8139 58.1949 52.0236C57.1173 52.2129 56.0867 52.1227 55.1031 51.7529C54.1309 51.3741 53.2864 50.7353 52.5696 49.8364C51.8437 48.9262 51.4031 47.9652 51.2478 46.9536C51.0949 45.9215 51.2123 44.925 51.6002 43.9642C51.9994 42.9943 52.6542 42.1465 53.5644 41.4206C54.4519 40.7128 55.397 40.2756 56.3995 40.109C57.4021 39.9423 58.3838 40.0529 59.3446 40.4408C60.3054 40.8287 61.1669 41.5005 61.9291 42.4562C62.0017 42.5473 62.0777 42.6542 62.157 42.777C62.2478 42.8908 62.3283 43.0035 62.3986 43.1149L54.8037 49.1717L53.674 47.7551L60.1425 42.5967L59.66 43.7073C59.254 43.1749 58.7784 42.8002 58.2333 42.5835C57.6882 42.3667 57.1257 42.3034 56.546 42.3934C55.9777 42.4743 55.4375 42.719 54.9255 43.1273C54.4021 43.5447 54.032 44.0259 53.8153 44.5711C53.6099 45.1072 53.5567 45.6707 53.6558 46.2618C53.7572 46.8325 54.0257 47.3908 54.4612 47.937L54.7334 48.2783C55.169 48.8245 55.6798 49.2083 56.2658 49.4296C56.8519 49.651 57.4632 49.694 58.0998 49.5586C58.7364 49.4232 59.3505 49.1196 59.9422 48.6478C60.4542 48.2394 60.8515 47.7923 61.1341 47.3064C61.4167 46.8204 61.5812 46.2797 61.6275 45.6843L63.8191 46.0866C63.7905 46.8911 63.5677 47.6738 63.1506 48.4345C62.7358 49.1748 62.1302 49.8626 61.3337 50.4977Z" fill="white"/>
<path d="M83.1376 34.2628L82.6324 32.0494L88.4851 30.7135L88.9903 32.9269L83.1376 34.2628Z" fill="white"/>
<path d="M114.566 29.3747L121.972 31.0651L121.453 33.3424L114.046 31.6519L114.566 29.3747ZM113.322 35.808L121.728 37.7268L121.199 40.0466L110.025 37.4963L113.426 22.5986L124.301 25.0808L123.772 27.4006L115.663 25.5499L113.322 35.808Z" fill="white"/>
<path d="M123.31 40.8549L130.83 37.0623L130.156 38.3611L128.545 30.4374L131.279 31.754L132.377 37.3713L131.335 36.8693L136.432 34.2355L139.087 35.5142L131.848 39.1756L132.502 37.8674L134.206 46.1021L131.433 44.7666L130.3 38.8179L131.256 39.4481L126.024 42.1619L123.31 40.8549Z" fill="white"/>
<path d="M141.479 51.81C140.74 51.2202 140.199 50.5097 139.857 49.6783C139.526 48.8561 139.451 47.9584 139.631 46.9854C139.832 46.01 140.354 44.9933 141.198 43.9351C142.051 42.8656 142.92 42.1255 143.806 41.7151C144.703 41.3137 145.585 41.1884 146.451 41.3394C147.326 41.4789 148.151 41.8572 148.924 42.4743C149.823 43.1911 150.46 44.0151 150.834 44.9464C151.22 45.8868 151.335 46.8628 151.179 47.8744C151.035 48.8951 150.587 49.8777 149.834 50.8221C149.081 51.7665 148.218 52.4281 147.246 52.8068C146.294 53.1833 145.317 53.2883 144.314 53.1216C143.323 52.964 142.378 52.5268 141.479 51.81ZM133.882 50.9728L143.791 38.5479L145.822 40.1676L144.107 42.318L142.106 44.6871L140.344 47.2468L136.016 52.6742L133.882 50.9728ZM142.697 49.7933C143.209 50.2016 143.755 50.4508 144.334 50.5408C144.925 50.6399 145.513 50.5685 146.097 50.3267C146.68 50.0849 147.204 49.6738 147.666 49.0935C148.138 48.5019 148.422 47.9003 148.519 47.2887C148.625 46.6658 148.564 46.0772 148.336 45.523C148.119 44.9779 147.755 44.5011 147.243 44.0928C146.731 43.6845 146.179 43.4308 145.588 43.3317C144.997 43.2326 144.41 43.304 143.826 43.5458C143.251 43.7762 142.728 44.1873 142.256 44.779C141.793 45.3592 141.509 45.9608 141.403 46.5838C141.297 47.2067 141.358 47.7953 141.587 48.3495C141.815 48.9037 142.185 49.385 142.697 49.7933Z" fill="white"/>
<path d="M150.018 60.0388L162.682 49.9397L164.384 52.0731L151.72 62.1722L150.018 60.0388Z" fill="white"/>
<path d="M159.047 74.5964C158.53 73.5212 158.298 72.4535 158.353 71.3934C158.421 70.3269 158.744 69.3553 159.324 68.4787C159.903 67.6021 160.711 66.9143 161.746 66.4155C162.795 65.9103 163.837 65.7077 164.87 65.8077C165.917 65.9014 166.871 66.2573 167.734 66.8754C168.598 67.4936 169.288 68.3403 169.806 69.4154C170.33 70.5037 170.564 71.578 170.51 72.6381C170.461 73.7114 170.151 74.6767 169.578 75.5339C169.012 76.4042 168.198 77.0951 167.136 77.6066C166.1 78.1054 165.059 78.308 164.012 78.2143C162.972 78.1338 162.011 77.7811 161.128 77.1561C160.265 76.5379 159.571 75.6847 159.047 74.5964ZM161.152 73.5829C161.442 74.1861 161.832 74.6605 162.322 75.0063C162.811 75.352 163.368 75.536 163.993 75.5583C164.624 75.5937 165.274 75.4504 165.942 75.1284C166.624 74.8 167.141 74.3814 167.494 73.8724C167.866 73.3702 168.069 72.82 168.104 72.2216C168.139 71.6233 168.015 71.0291 167.73 70.4391C167.44 69.836 167.05 69.3615 166.56 69.0158C166.077 68.6831 165.52 68.4991 164.889 68.4637C164.271 68.422 163.622 68.5653 162.94 68.8937C162.271 69.2157 161.754 69.6344 161.388 70.1497C161.023 70.665 160.819 71.2152 160.778 71.8004C160.743 72.3987 160.868 72.9929 161.152 73.5829Z" fill="white"/>
<path d="M162.966 84.953L174.33 82.3591L174.908 84.8917L171.78 85.6058L172.627 85.0989C173.471 85.2646 174.174 85.6639 174.737 86.2968C175.302 86.9439 175.71 87.8137 175.959 88.9062L173.426 89.4843C173.429 89.3643 173.419 89.2546 173.396 89.1553C173.388 89.0528 173.372 88.9518 173.349 88.8525C173.119 87.8451 172.639 87.1115 171.907 86.6516C171.189 86.1885 170.248 86.0897 169.085 86.3552L163.573 87.6133L162.966 84.953Z" fill="white"/>
<path d="M164.931 102.612C164.931 101.317 165.185 100.182 165.695 99.207C166.219 98.2465 166.932 97.497 167.834 96.9585C168.736 96.4346 169.762 96.1726 170.912 96.1726C172.076 96.1726 173.102 96.4273 173.99 96.9367C174.892 97.4606 175.598 98.1737 176.108 99.076C176.617 99.9928 176.872 101.033 176.872 102.198C176.872 103.333 176.624 104.344 176.129 105.232C175.635 106.12 174.936 106.818 174.034 107.328C173.131 107.837 172.069 108.092 170.847 108.092C170.73 108.092 170.599 108.084 170.454 108.07C170.308 108.07 170.17 108.063 170.039 108.048V98.3338H171.851V106.607L171.283 105.538C171.953 105.552 172.542 105.414 173.051 105.123C173.561 104.832 173.961 104.432 174.252 103.922C174.543 103.427 174.689 102.853 174.689 102.198C174.689 101.528 174.543 100.939 174.252 100.429C173.961 99.9346 173.553 99.5417 173.03 99.2506C172.52 98.9741 171.916 98.8359 171.218 98.8359H170.781C170.083 98.8359 169.464 98.996 168.926 99.3161C168.387 99.6363 167.972 100.087 167.681 100.67C167.39 101.252 167.245 101.921 167.245 102.678C167.245 103.333 167.347 103.922 167.55 104.446C167.754 104.97 168.074 105.436 168.511 105.843L166.83 107.306C166.219 106.782 165.746 106.12 165.411 105.319C165.091 104.533 164.931 103.631 164.931 102.612Z" fill="white"/>
<path d="M162.114 122.388L175.882 129.018L174.868 131.122L161.92 132.301L162.45 131.199L169.649 141.959L168.636 144.064L154.859 137.453L156.024 135.034L166.005 139.817L165.759 140.328L159.785 131.249L160.335 130.108L171.195 129.039L170.911 129.629L160.94 124.827L162.114 122.388Z" fill="white"/>
<path d="M150.189 142.501C150.933 141.568 151.795 140.896 152.774 140.486C153.764 140.084 154.78 139.954 155.821 140.096C156.862 140.237 157.832 140.666 158.731 141.383C159.641 142.109 160.276 142.959 160.634 143.934C161.004 144.917 161.097 145.932 160.915 146.978C160.732 148.024 160.269 149.013 159.525 149.946C158.772 150.89 157.906 151.568 156.927 151.979C155.939 152.401 154.935 152.54 153.914 152.396C152.884 152.263 151.908 151.83 150.987 151.095C150.088 150.378 149.453 149.528 149.084 148.544C148.705 147.572 148.606 146.553 148.786 145.486C148.968 144.441 149.436 143.445 150.189 142.501ZM152.015 143.957C151.598 144.481 151.34 145.038 151.241 145.629C151.142 146.22 151.218 146.802 151.468 147.374C151.71 147.958 152.121 148.481 152.702 148.944C153.293 149.416 153.895 149.7 154.506 149.797C155.12 149.914 155.704 149.859 156.258 149.631C156.813 149.403 157.294 149.032 157.702 148.52C158.12 147.997 158.378 147.44 158.477 146.849C158.567 146.269 158.491 145.687 158.249 145.104C158.019 144.529 157.608 144.006 157.016 143.534C156.436 143.071 155.834 142.787 155.211 142.681C154.588 142.575 154.004 142.63 153.459 142.847C152.905 143.075 152.424 143.445 152.015 143.957Z" fill="white"/>
<path d="M142.558 150.525L149.826 159.639L147.795 161.258L145.795 158.749L146.619 159.293C146.836 160.125 146.781 160.932 146.455 161.713C146.117 162.503 145.51 163.248 144.634 163.947L143.015 161.916C143.124 161.866 143.218 161.809 143.298 161.746C143.386 161.694 143.471 161.636 143.55 161.572C144.358 160.928 144.81 160.176 144.907 159.317C145.013 158.47 144.694 157.579 143.95 156.646L140.425 152.226L142.558 150.525Z" fill="white"/>
<path d="M127.5 159.957C128.667 159.395 129.801 159.132 130.9 159.168C131.993 159.224 132.977 159.541 133.854 160.12C134.718 160.706 135.399 161.517 135.898 162.552C136.403 163.601 136.618 164.636 136.545 165.657C136.464 166.697 136.128 167.643 135.536 168.493C134.931 169.35 134.104 170.031 133.055 170.536C132.032 171.028 131.014 171.244 129.999 171.184C128.985 171.123 128.052 170.797 127.202 170.205C126.351 169.613 125.661 168.766 125.131 167.665C125.08 167.56 125.03 167.439 124.98 167.301C124.917 167.17 124.863 167.043 124.819 166.918L133.572 162.703L134.358 164.336L126.904 167.926L127.621 166.95C127.898 167.56 128.279 168.031 128.762 168.363C129.245 168.696 129.779 168.883 130.365 168.924C130.937 168.972 131.518 168.853 132.108 168.569C132.711 168.279 133.179 167.892 133.512 167.409C133.831 166.932 134.008 166.394 134.043 165.796C134.071 165.217 133.934 164.613 133.631 163.983L133.441 163.59C133.138 162.961 132.726 162.473 132.204 162.126C131.681 161.78 131.095 161.602 130.444 161.593C129.793 161.583 129.127 161.742 128.445 162.071C127.855 162.355 127.368 162.702 126.985 163.113C126.601 163.524 126.321 164.015 126.143 164.585L124.096 163.705C124.303 162.927 124.694 162.214 125.27 161.565C125.839 160.935 126.583 160.399 127.5 159.957Z" fill="white"/>
<path d="M126.522 96.6051C130.29 98.7806 130.29 104.219 126.522 106.395L94.7283 124.751C90.9601 126.926 86.25 124.207 86.25 119.856L86.25 83.144C86.25 78.793 90.9601 76.0736 94.7283 78.2491L126.522 96.6051Z" fill="white"/>
</svg>
