<svg width="933" height="269" viewBox="0 0 933 269" fill="none" xmlns="http://www.w3.org/2000/svg">
<path d="M43.0707 137.138V158.772H1.31188V74.119H75.9931V104.335H43.0707V107.157H75.9931V137.138H43.0707Z" fill="#F5CA56"/>
<path d="M123.292 160.536C113.744 160.536 105.62 159.477 99.0638 157.244C85.6668 152.776 78.9683 143.017 78.9683 125.381V108.451C78.9683 99.6325 80.8211 92.6957 84.3841 87.2873C91.7952 76.5881 105.335 72.2379 123.72 72.2379C132.841 72.2379 140.68 73.4136 147.521 75.7651C160.918 80.7032 168.472 90.8145 168.472 108.451V125.381C168.472 133.846 166.619 140.666 163.198 145.839C156.072 156.185 142.533 160.536 123.292 160.536ZM123.72 132.318C125.288 132.318 125.715 131.495 125.715 128.556V103.63C125.715 100.691 125.288 100.103 123.72 100.103C122.437 100.103 121.725 100.573 121.725 103.748V128.673C121.725 131.495 122.437 132.318 123.72 132.318Z" fill="#F5CA56"/>
<path d="M214.555 160.536C185.196 160.536 171.941 150.895 171.941 125.381V74.119H213.13V125.028C213.13 128.673 213.7 129.261 214.983 129.261C216.55 129.261 216.836 128.673 216.836 125.028V74.119H257.882V125.381C257.882 134.199 256.029 141.136 252.466 146.309C245.197 156.538 232.085 160.536 214.555 160.536Z" fill="#F5CA56"/>
<path d="M299.206 158.772H261.153V74.119H309.468L327.283 129.849L319.017 93.5187V74.119H356.5V158.772H309.183L292.508 105.041L299.206 136.198V158.772Z" fill="#F5CA56"/>
<path d="M360.121 74.119H402.022C431.667 74.119 446.916 84.4655 446.916 107.745V124.088C446.916 131.495 445.634 137.844 442.926 143.017C437.51 153.364 425.823 158.772 404.445 158.772H360.121V74.119ZM401.31 101.279V130.554H401.452C404.445 130.554 405.3 129.849 405.3 125.146V106.217C405.3 101.984 404.73 101.279 401.452 101.279H401.31Z" fill="#F5CA56"/>
<path d="M501.271 152.658H483.17L481.603 158.772H441.554L467.35 74.119H517.375L543.314 158.772H502.696L501.271 152.658ZM488.871 129.731H495.855L493.432 119.267L492.577 103.395L491.579 119.267L488.871 129.731Z" fill="#F5CA56"/>
<path d="M590.646 103.512V158.772H548.46V103.512H528.364V74.119H609.744V103.512H590.646Z" fill="#F5CA56"/>
<path d="M612.596 74.119H654.069V158.772H612.596V74.119Z" fill="#F5CA56"/>
<path d="M702.147 160.536C692.598 160.536 684.474 159.477 677.918 157.244C664.521 152.776 657.823 143.017 657.823 125.381V108.451C657.823 99.6325 659.675 92.6957 663.238 87.2873C670.65 76.5881 684.189 72.2379 702.574 72.2379C711.696 72.2379 719.535 73.4136 726.376 75.7651C739.773 80.7032 747.326 90.8145 747.326 108.451V125.381C747.326 133.846 745.473 140.666 742.053 145.839C734.927 156.185 721.387 160.536 702.147 160.536ZM702.574 132.318C704.142 132.318 704.57 131.495 704.57 128.556V103.63C704.57 100.691 704.142 100.103 702.574 100.103C701.292 100.103 700.579 100.573 700.579 103.748V128.673C700.579 131.495 701.292 132.318 702.574 132.318Z" fill="#F5CA56"/>
<path d="M788.706 158.772H750.653V74.119H798.968L816.783 129.849L808.517 93.5187V74.119H846V158.772H798.683L782.008 105.041L788.706 136.198V158.772Z" fill="#F5CA56"/>
<path d="M49.7757 23.4912V67.6546H16.0603V23.4912H0V0H65.0387V23.4912H49.7757Z" fill="white"/>
<path d="M103.197 44.3514H100.236V67.6546H67.3177V0H100.236V22.0817H103.197V0H136.001V67.6546H103.197V44.3514Z" fill="white"/>
<path d="M200.341 67.6546H139.175V0H200.341V22.5515H171.409V24.5248H200.341V42.2841H171.409V44.3514H200.341V67.6546Z" fill="white"/>
<path d="M357.954 250.217V266.995H323V174.07H360.405C369.563 174.07 376.915 175.361 382.461 177.942C393.682 183.363 398.326 193.946 398.326 211.627C398.326 220.919 397.165 228.276 394.585 233.955C389.555 245.312 378.978 250.087 360.276 250.217H357.954ZM357.954 203.367V220.79H359.115C361.695 220.79 362.469 219.371 362.469 211.756C362.469 204.271 361.824 203.367 359.373 203.367H357.954Z" fill="white"/>
<path d="M438.371 239.246V266.995H401.095V174.07H443.788C453.075 174.07 460.427 175.103 465.844 177.038C476.55 181.168 480.677 189.041 480.677 200.915C480.677 215.628 474.228 221.694 463.393 224.662C467.908 225.179 471.132 226.082 473.325 227.631C477.84 230.341 479 235.762 479 245.441V260.025C479 263.51 479.903 265.833 481.838 266.995H444.433C442.885 266.091 441.982 264.026 441.982 260.8V245.57C441.982 239.633 441.208 239.246 438.5 239.246H438.371ZM438.371 203.367V213.176H440.048C442.24 213.176 443.272 211.498 443.272 208.271V208.142C443.272 205.432 442.369 203.367 439.919 203.367H438.371Z" fill="white"/>
<path d="M522.446 268.93C513.804 268.93 506.452 267.769 500.519 265.317C488.395 260.412 482.333 249.7 482.333 230.341V211.756C482.333 202.076 484.01 194.462 487.234 188.525C493.941 176.78 506.195 172.005 522.833 172.005C531.088 172.005 538.182 173.296 544.373 175.877C556.498 181.298 563.334 192.397 563.334 211.756V230.341C563.334 239.633 561.657 247.119 558.561 252.798C552.112 264.155 539.859 268.93 522.446 268.93ZM522.833 237.956C524.252 237.956 524.639 237.052 524.639 233.826V206.465C524.639 203.238 524.252 202.593 522.833 202.593C521.672 202.593 521.028 203.109 521.028 206.594V233.955C521.028 237.052 521.672 237.956 522.833 237.956Z" fill="white"/>
<path d="M614.068 245.183C613.036 259.896 607.361 268.93 592.012 268.93C585.434 268.93 580.404 267.64 576.663 265.188C569.182 260.025 566.474 248.797 566.474 229.309V212.918C566.474 184.395 581.436 172.134 608.909 172.134C636.382 172.134 648.507 183.879 648.12 209.691V210.724H609.812V209.949C609.812 204.4 609.554 203.883 607.619 203.883C606.974 203.883 606.458 204.012 606.071 204.4C605.426 205.045 605.168 207.239 605.168 212.789V232.922C605.168 240.408 605.684 241.44 608.393 241.44C610.586 241.44 611.618 239.375 611.618 235.633H607.877V213.95H648.12V266.995H616.648L614.068 245.183Z" fill="white"/>
<path d="M689.03 239.246V266.995H651.754V174.07H694.448C703.734 174.07 711.086 175.103 716.504 177.038C727.209 181.168 731.337 189.041 731.337 200.915C731.337 215.628 724.887 221.694 714.053 224.662C718.567 225.179 721.792 226.082 723.985 227.631C728.499 230.341 729.66 235.762 729.66 245.441V260.025C729.66 263.51 730.563 265.833 732.497 266.995H695.092C693.545 266.091 692.642 264.026 692.642 260.8V245.57C692.642 239.633 691.868 239.246 689.159 239.246H689.03ZM689.03 203.367V213.176H690.707C692.9 213.176 693.932 211.498 693.932 208.271V208.142C693.932 205.432 693.029 203.367 690.578 203.367H689.03Z" fill="white"/>
<path d="M782.518 260.283H766.138L764.719 266.995H728.475L751.821 174.07H797.094L820.568 266.995H783.808L782.518 260.283ZM771.297 235.116H777.617L775.424 223.63L774.651 206.206L773.748 223.63L771.297 235.116Z" fill="white"/>
<path d="M854.625 266.995H819.155V174.07H868.039L871.006 202.593L871.521 226.34L872.295 202.464L875.649 174.07H923.501V266.995H887.902V247.377L893.32 199.108L881.711 266.995H860.558L849.079 199.753L854.625 247.506V266.995Z" fill="white"/>
</svg>
