<svg width="108" height="29" viewBox="0 0 108 29" fill="none" xmlns="http://www.w3.org/2000/svg">
<path d="M17.063 14.3707C17.7775 14.3707 18.3567 14.9499 18.3567 15.6644V16.1539C18.3567 17.1388 17.5583 17.9371 16.5735 17.9371H16.3987C14.6271 17.9371 13.38 17.2611 12.6574 15.9091C11.4919 17.5642 9.73197 18.3917 7.37765 18.3917C5.75955 18.3917 3.77624 19.558 3.77624 21.1761V23.042C3.77624 24.0848 2.9309 24.9302 1.88812 24.9302C0.84534 24.9302 0 24.0848 0 23.042L0 2.34267C0 1.29989 0.84534 0.454547 1.88812 0.454547C2.9309 0.454547 3.77624 1.29989 3.77624 2.34267V10.8042C3.77624 12.0863 4.12589 13.0886 4.82519 13.8112C5.52449 14.5105 6.46855 14.8602 7.65737 14.8602C9.00936 14.8602 10.0933 14.4523 10.9091 13.6364C11.725 12.7972 12.1329 11.5152 12.1329 9.79025V2.34266C12.1329 1.29989 12.9783 0.454547 14.021 0.454547C15.0638 0.454547 15.9091 1.29989 15.9091 2.34266V13.2168C15.9091 13.5665 16.014 13.8462 16.2238 14.056C16.4336 14.2658 16.7133 14.3707 17.063 14.3707Z" fill="white"/>
<path d="M25.7092 10.4983C25.7092 12.4825 27.3177 14.091 29.3019 14.091H33.7512C34.8133 14.091 35.6743 14.952 35.6743 16.014C35.6743 17.0761 34.8133 17.9371 33.7512 17.9371H28.6813C24.8191 17.9371 21.6882 14.8062 21.6882 10.9441V2.465C21.6882 1.35463 22.5884 0.454499 23.6987 0.454499C24.8091 0.454499 25.7092 1.35463 25.7092 2.46499V10.4983Z" fill="white"/>
<path d="M42.2808 10.8042C41.538 10.8042 40.9723 11.4999 41.3035 12.1647C41.6478 12.856 42.1342 13.4281 42.7627 13.8812C43.765 14.5805 44.9888 14.9301 46.434 14.9301C47.7767 14.9301 48.8946 14.6059 49.7877 13.9576C50.551 13.4034 51.5731 13.1295 52.3875 13.6054C53.2904 14.1329 53.5712 15.3352 52.8146 16.057C51.183 17.6134 49.0445 18.3917 46.399 18.3917C43.5552 18.3917 41.2592 17.5292 39.5109 15.8043C37.7626 14.056 36.8885 11.8532 36.8885 9.19584C36.8885 6.58511 37.751 4.40561 39.4759 2.65735C41.2009 0.885784 43.4153 0 46.1193 0C48.6834 0 50.7813 0.897438 52.413 2.69232C54.0681 4.48719 54.8956 6.66669 54.8956 9.2308C54.8956 10.1379 54.082 10.8042 53.1749 10.8042H42.2808ZM40.8046 7.7273H51.0844C50.828 6.30538 50.2335 5.23312 49.3011 4.51051C48.3921 3.78789 47.3198 3.42659 46.0844 3.42659C44.6857 3.42659 43.5202 3.8112 42.5878 4.58043C41.6554 5.34967 41.061 6.39862 40.8046 7.7273Z" fill="white"/>
<path d="M71.9621 2.34267C71.9621 1.29989 72.8075 0.454547 73.8502 0.454547C74.893 0.454547 75.7384 1.29989 75.7384 2.34267V16.049C75.7384 17.0918 74.893 17.9371 73.8502 17.9371C72.8075 17.9371 71.9621 17.0918 71.9621 16.049V15.4196C70.5402 17.401 68.5006 18.3917 65.8432 18.3917C63.4423 18.3917 61.391 17.5059 59.6893 15.7343C57.9877 13.9394 57.1369 11.7599 57.1369 9.19584C57.1369 6.60842 57.9877 4.42892 59.6893 2.65735C61.391 0.885784 63.4423 0 65.8432 0C68.5006 0 70.5402 0.979024 71.9621 2.93707V2.34267ZM62.4866 13.2168C63.5355 14.2658 64.8525 14.7903 66.4376 14.7903C68.0227 14.7903 69.3397 14.2658 70.3887 13.2168C71.4376 12.1446 71.9621 10.8042 71.9621 9.19584C71.9621 7.58744 71.4376 6.25876 70.3887 5.20981C69.3397 4.13754 68.0227 3.60141 66.4376 3.60141C64.8525 3.60141 63.5355 4.13754 62.4866 5.20981C61.4376 6.25876 60.9131 7.58744 60.9131 9.19584C60.9131 10.8042 61.4376 12.1446 62.4866 13.2168Z" fill="white"/>
<path d="M83.9161 3.39162C84.6124 1.81228 85.754 0.808233 87.3411 0.379494C88.3965 0.0943713 89.3007 1.02613 89.3007 2.11941C89.3007 3.26283 88.3084 4.12148 87.2105 4.44079C86.6049 4.61692 86.0429 4.89657 85.5245 5.27974C84.4522 6.04897 83.9161 7.33103 83.9161 9.12591V16.049C83.9161 17.0918 83.0708 17.9371 82.028 17.9371C80.9852 17.9371 80.1399 17.0918 80.1399 16.049V2.34267C80.1399 1.29989 80.9852 0.454547 82.028 0.454547C83.0708 0.454547 83.9161 1.29989 83.9161 2.34267V3.39162Z" fill="white"/>
<path d="M101.287 0C103.291 0 104.911 0.641027 106.147 1.92308C107.382 3.20514 108 4.96505 108 7.20282V16.049C108 17.0918 107.155 17.9371 106.112 17.9371C105.069 17.9371 104.224 17.0918 104.224 16.049V7.58744C104.224 6.28207 103.874 5.27974 103.175 4.58043C102.476 3.88113 101.52 3.53148 100.308 3.53148C98.979 3.53148 97.9067 3.95106 97.0909 4.79023C96.275 5.60608 95.8671 6.86483 95.8671 8.56646V16.049C95.8671 17.0918 95.0218 17.9371 93.979 17.9371C92.9362 17.9371 92.0909 17.0918 92.0909 16.049V2.34266C92.0909 1.29988 92.9362 0.454547 93.979 0.454547C95.0218 0.454547 95.8671 1.29989 95.8671 2.34267V2.69232C97.0093 0.897438 98.8158 0 101.287 0Z" fill="white"/>
<path d="M40.982 28.4381C40.6701 28.4381 40.395 28.3842 40.1569 28.2764C39.9244 28.163 39.7429 28.0099 39.6125 27.8171C39.4821 27.6186 39.4169 27.3862 39.4169 27.1196C39.4169 26.8701 39.4707 26.6461 39.5785 26.4477C39.6919 26.2492 39.8648 26.0819 40.0973 25.9458C40.3298 25.8097 40.6219 25.7133 40.9735 25.6566L42.1366 25.4648C42.365 25.4272 42.5726 25.6033 42.5726 25.8348C42.5726 26.017 42.4416 26.1728 42.2621 26.2042L41.1606 26.3966C40.9054 26.442 40.7183 26.5242 40.5992 26.6433C40.4801 26.7567 40.4206 26.9041 40.4206 27.0856C40.4206 27.2614 40.4858 27.406 40.6162 27.5194C40.7523 27.6272 40.9253 27.681 41.1351 27.681C41.3959 27.681 41.6227 27.6243 41.8155 27.5109C42.014 27.3975 42.1671 27.2472 42.2749 27.0601C42.3826 26.8673 42.4365 26.6546 42.4365 26.4221V25.2398C42.4365 25.013 42.3514 24.8287 42.1813 24.6869C42.0169 24.5395 41.7957 24.4658 41.5178 24.4658C41.2627 24.4658 41.0387 24.5338 40.8459 24.6699C40.7944 24.7058 40.7467 24.7446 40.7025 24.7864C40.5122 24.9668 40.2318 25.0816 39.9973 24.9644C39.7882 24.8598 39.6862 24.6081 39.8267 24.4213C39.8898 24.3373 39.9631 24.2585 40.0463 24.1851C40.2391 24.0093 40.4631 23.8732 40.7183 23.7768C40.9791 23.6804 41.2541 23.6322 41.5434 23.6322C41.9063 23.6322 42.2267 23.7002 42.5045 23.8363C42.7881 23.9724 43.0064 24.1624 43.1595 24.4062C43.3183 24.6444 43.3977 24.9223 43.3977 25.2398V27.8767C43.3977 28.1303 43.192 28.336 42.9383 28.336H42.8687C42.6535 28.336 42.479 28.1615 42.479 27.9463V27.5877C42.479 27.5425 42.5187 27.5076 42.5635 27.5134C42.6165 27.5203 42.6452 27.5787 42.6157 27.6231C42.5177 27.7704 42.3984 27.9003 42.2579 28.0128C42.0934 28.1489 41.9034 28.2538 41.688 28.3275C41.4781 28.4012 41.2428 28.4381 40.982 28.4381Z" fill="white"/>
<path d="M49.0705 28.4381C48.6225 28.4381 48.2058 28.3558 47.8202 28.1914C47.4402 28.0269 47.1057 27.8001 46.8164 27.5109C46.5329 27.216 46.3118 26.8701 46.153 26.4732C45.9942 26.0762 45.9148 25.6396 45.9148 25.1633C45.9148 24.6926 45.9914 24.2588 46.1445 23.8618C46.3033 23.4592 46.5244 23.1133 46.8079 22.8241C47.0915 22.5292 47.4232 22.3024 47.8031 22.1436C48.1831 21.9792 48.5999 21.897 49.0535 21.897C49.5015 21.897 49.9013 21.9735 50.2529 22.1266C50.6101 22.2797 50.9107 22.481 51.1545 22.7306C51.2812 22.8573 51.3896 22.9901 51.4795 23.1291C51.6182 23.3434 51.5066 23.6152 51.277 23.7268C51.0149 23.8541 50.7051 23.7211 50.5257 23.4915C50.4187 23.3544 50.2909 23.2341 50.1423 23.1303C49.8417 22.9149 49.4788 22.8071 49.0535 22.8071C48.6339 22.8071 48.2625 22.9063 47.9392 23.1048C47.616 23.3033 47.3637 23.5783 47.1822 23.9299C47.0064 24.2815 46.9185 24.6926 46.9185 25.1633C46.9185 25.6339 47.0093 26.0479 47.1907 26.4051C47.3778 26.7567 47.633 27.0317 47.9562 27.2302C48.2795 27.423 48.6509 27.5194 49.0705 27.5194C49.4221 27.5194 49.7425 27.4485 50.0317 27.3068C50.3266 27.1593 50.5619 26.9552 50.7377 26.6943C50.9135 26.4278 51.0014 26.1188 51.0014 25.7672V25.6162C51.0014 25.5074 51.1304 25.4502 51.211 25.5232C51.2961 25.6003 51.2416 25.7417 51.1268 25.7417H49.4788C49.2439 25.7417 49.0535 25.5513 49.0535 25.3164C49.0535 25.0815 49.2439 24.8911 49.4788 24.8911H51.4012C51.73 24.8911 51.9966 25.1576 51.9966 25.4865C51.9966 25.9515 51.9172 26.3683 51.7584 26.7369C51.5996 27.0998 51.3842 27.4088 51.112 27.664C50.8398 27.9192 50.5279 28.112 50.1763 28.2424C49.8247 28.3728 49.4561 28.4381 49.0705 28.4381Z" fill="white"/>
<path d="M54.5587 28.336C54.2839 28.336 54.0611 28.1132 54.0611 27.8384V23.7343C54.0611 23.2692 53.6841 22.8922 53.219 22.8922H52.8235C52.5768 22.8922 52.3769 22.6922 52.3769 22.4456C52.3769 22.199 52.5768 21.999 52.8235 21.999H56.2684C56.515 21.999 56.7149 22.199 56.7149 22.4456C56.7149 22.6922 56.515 22.8922 56.2684 22.8922H55.8856C55.4276 22.8922 55.0563 23.2635 55.0563 23.7215V27.8384C55.0563 28.1132 54.8335 28.336 54.5587 28.336Z" fill="white"/>
<path d="M58.9343 28.4381C58.4749 28.4381 58.0666 28.3331 57.7094 28.1233C57.3578 27.9078 57.0828 27.6186 56.8843 27.2557C56.6858 26.8871 56.5866 26.476 56.5866 26.0224C56.5866 25.5574 56.6858 25.1462 56.8843 24.789C57.0885 24.4317 57.3606 24.1511 57.7009 23.9469C58.0411 23.7371 58.4267 23.6322 58.8577 23.6322C59.2036 23.6322 59.5127 23.6917 59.7848 23.8108C60.057 23.9299 60.2867 24.0943 60.4738 24.3042C60.661 24.5083 60.8027 24.7436 60.8991 25.0102C61.0012 25.2767 61.0522 25.5602 61.0522 25.8607C61.0522 25.9345 61.0494 26.011 61.0437 26.0904C61.0343 26.2217 60.9173 26.3116 60.7857 26.3116H57.7264C57.515 26.3116 57.3436 26.1402 57.3436 25.9288C57.3436 25.7174 57.515 25.546 57.7264 25.546H60.1609C60.259 25.546 60.301 25.6708 60.2228 25.7301C60.1475 25.7873 60.0354 25.7192 60.0372 25.6247C60.0407 25.4543 60.0104 25.2977 59.9465 25.1548C59.8557 24.9336 59.714 24.7606 59.5212 24.6359C59.334 24.5055 59.1129 24.4403 58.8577 24.4403C58.6025 24.4403 58.3757 24.5055 58.1772 24.6359C57.9787 24.7606 57.8256 24.9421 57.7179 25.1803C57.625 25.3807 57.5806 25.619 57.5846 25.8952C57.586 25.9856 57.5846 26.076 57.5824 26.1664C57.5761 26.4222 57.6212 26.6493 57.7179 26.8474C57.837 27.0799 58.0014 27.2614 58.2112 27.3918C58.4267 27.5222 58.6706 27.5875 58.9428 27.5875C59.2206 27.5875 59.4559 27.5251 59.6488 27.4003C59.7199 27.3556 59.7855 27.3062 59.8457 27.252C60.0271 27.0888 60.2871 26.9989 60.5063 27.1061C60.7268 27.2139 60.8284 27.4806 60.6749 27.672C60.6155 27.746 60.5485 27.8171 60.4738 27.8852C60.2867 28.0553 60.0599 28.1914 59.7934 28.2935C59.5325 28.3899 59.2461 28.4381 58.9343 28.4381Z" fill="white"/>
<path d="M64.1763 28.4381C63.717 28.4381 63.3087 28.3331 62.9515 28.1233C62.5999 27.9078 62.3192 27.6186 62.1094 27.2557C61.9052 26.8928 61.8032 26.4817 61.8032 26.0224C61.8032 25.5687 61.9052 25.1604 62.1094 24.7975C62.3135 24.4346 62.5942 24.1511 62.9515 23.9469C63.3087 23.7371 63.717 23.6322 64.1763 23.6322C64.4882 23.6322 64.7802 23.6889 65.0524 23.8023C65.3246 23.91 65.56 24.0603 65.7584 24.2531C65.8528 24.3423 65.9357 24.4381 66.0071 24.5406C66.1474 24.7421 66.037 25.0051 65.8143 25.1086C65.5711 25.2216 65.288 25.0966 65.098 24.9073C65.0386 24.8481 64.9724 24.7945 64.8993 24.7465C64.6895 24.599 64.4485 24.5253 64.1763 24.5253C63.9155 24.5253 63.6801 24.5905 63.4703 24.721C63.2662 24.8457 63.1046 25.0243 62.9855 25.2568C62.8664 25.4837 62.8069 25.7417 62.8069 26.0309C62.8069 26.3201 62.8664 26.5809 62.9855 26.8134C63.1046 27.0402 63.2662 27.2189 63.4703 27.3493C63.6801 27.4797 63.9155 27.5449 64.1763 27.5449C64.4542 27.5449 64.6952 27.474 64.8993 27.3323C64.9724 27.2809 65.0389 27.2238 65.0989 27.1608C65.2856 26.9646 65.5717 26.8425 65.8164 26.9586C66.0387 27.0642 66.1481 27.3273 66.0068 27.5287C65.9382 27.6266 65.8582 27.7199 65.7669 27.8086C65.5685 28.0014 65.3331 28.1545 65.0609 28.2679C64.7887 28.3813 64.4939 28.4381 64.1763 28.4381Z" fill="white"/>
<path d="M67.6293 28.336C67.3638 28.336 67.1487 28.1208 67.1487 27.8554V22.3776C67.1487 22.1121 67.3638 21.897 67.6293 21.897C67.8947 21.897 68.1099 22.1121 68.1099 22.3776V24.4938C68.1099 24.5517 68.0434 24.5842 67.9977 24.5487C67.9734 24.5298 67.9643 24.4971 67.9765 24.4688C68.0907 24.2033 68.2656 24.001 68.5011 23.8618C68.7506 23.7087 69.0398 23.6322 69.3687 23.6322C69.709 23.6322 70.0095 23.7059 70.2704 23.8533C70.5312 24.0008 70.7354 24.2049 70.8828 24.4658C71.0302 24.7266 71.104 25.0243 71.104 25.3589V27.8597C71.104 28.1227 70.8907 28.336 70.6276 28.336C70.3645 28.336 70.1513 28.1227 70.1513 27.8597V25.6226C70.1513 25.3901 70.1059 25.1944 70.0152 25.0357C69.9301 24.8712 69.811 24.7465 69.6579 24.6614C69.5048 24.5707 69.329 24.5253 69.1306 24.5253C68.9378 24.5253 68.762 24.5707 68.6032 24.6614C68.4501 24.7465 68.3282 24.8712 68.2374 25.0357C68.1524 25.2001 68.1099 25.3958 68.1099 25.6226V27.8554C68.1099 28.1208 67.8947 28.336 67.6293 28.336Z" fill="white"/>
<path d="M74.2149 28.336C73.9378 28.336 73.7131 28.1113 73.7131 27.8341V22.5009C73.7131 22.2237 73.9378 21.999 74.2149 21.999C74.4921 21.999 74.7168 22.2237 74.7168 22.5009V27.8341C74.7168 28.1113 74.4921 28.336 74.2149 28.336Z" fill="white"/>
<path d="M76.4177 28.336C76.1522 28.336 75.9371 28.1208 75.9371 27.8554V24.1936C75.9371 23.9399 76.1427 23.7343 76.3964 23.7343H76.6015C76.7419 23.7343 76.8557 23.8481 76.8557 23.9885V24.5056C76.8557 24.5521 76.7987 24.5745 76.767 24.5404C76.7536 24.526 76.7496 24.5051 76.7572 24.487C76.8712 24.2125 77.0487 24.0042 77.2895 23.8618C77.539 23.7087 77.8282 23.6322 78.1571 23.6322C78.4974 23.6322 78.7979 23.7059 79.0588 23.8533C79.3196 24.0008 79.5237 24.2049 79.6712 24.4658C79.8186 24.7266 79.8923 25.0272 79.8923 25.3674V27.8596C79.8923 28.1227 79.6791 28.336 79.416 28.336C79.1529 28.336 78.9397 28.1227 78.9397 27.8596V25.6226C78.9397 25.3901 78.8971 25.1944 78.8121 25.0357C78.727 24.8712 78.6051 24.7465 78.4463 24.6614C78.2932 24.5707 78.1174 24.5253 77.919 24.5253C77.7205 24.5253 77.5419 24.5707 77.3831 24.6614C77.23 24.7465 77.1109 24.8712 77.0258 25.0357C76.9408 25.2001 76.8982 25.3958 76.8982 25.6226V27.8554C76.8982 28.1208 76.6831 28.336 76.4177 28.336Z" fill="white"/>
<path d="M81.4016 28.336C81.1362 28.336 80.921 28.1208 80.921 27.8554V24.2148C80.921 23.9494 81.1362 23.7343 81.4016 23.7343C81.667 23.7343 81.8822 23.9494 81.8822 24.2148V27.8554C81.8822 28.1208 81.667 28.336 81.4016 28.336ZM81.4016 23.1048C81.1362 23.1048 80.921 22.8897 80.921 22.6242V22.4796C80.921 22.2142 81.1362 21.999 81.4016 21.999C81.667 21.999 81.8822 22.2142 81.8822 22.4796V22.6242C81.8822 22.8897 81.667 23.1048 81.4016 23.1048Z" fill="white"/>
<path d="M84.9964 28.387C84.5144 28.387 84.1401 28.2509 83.8736 27.9787C83.6071 27.7065 83.4738 27.3238 83.4738 26.8304V25.0059C83.4738 24.7828 83.2929 24.6019 83.0698 24.6019C82.8466 24.6019 82.6657 24.421 82.6657 24.1978V23.8618C82.6657 23.7914 82.7229 23.7343 82.7933 23.7343C83.0088 23.7343 83.1761 23.6719 83.2952 23.5471C83.4143 23.4224 83.4738 23.2523 83.4738 23.0368C83.4738 22.8395 83.6338 22.6795 83.8311 22.6795H83.9544C84.2198 22.6795 84.435 22.8947 84.435 23.1601V23.2111C84.435 23.5001 84.6692 23.7343 84.9581 23.7343H85.0474C85.287 23.7343 85.4812 23.9285 85.4812 24.1681C85.4812 24.4076 85.287 24.6019 85.0474 24.6019H84.9581C84.6692 24.6019 84.435 24.8361 84.435 25.125V26.7879C84.435 26.9467 84.4605 27.0828 84.5115 27.1962C84.5626 27.3039 84.6448 27.389 84.7582 27.4514C84.8716 27.5081 85.0191 27.5364 85.2005 27.5364C85.2459 27.5364 85.2969 27.5336 85.3536 27.5279C85.4399 27.5193 85.5152 27.5867 85.5152 27.6734V28.0701C85.5152 28.2227 85.4031 28.3522 85.2516 28.37C85.1552 28.3813 85.0701 28.387 84.9964 28.387Z" fill="white"/>
<path d="M86.9338 28.336C86.6684 28.336 86.4532 28.1208 86.4532 27.8554V24.2148C86.4532 23.9494 86.6684 23.7343 86.9338 23.7343C87.1992 23.7343 87.4144 23.9494 87.4144 24.2148V27.8554C87.4144 28.1208 87.1992 28.336 86.9338 28.336ZM86.9338 23.1048C86.6684 23.1048 86.4532 22.8897 86.4532 22.6242V22.4796C86.4532 22.2142 86.6684 21.999 86.9338 21.999C87.1992 21.999 87.4144 22.2142 87.4144 22.4796V22.6242C87.4144 22.8897 87.1992 23.1048 86.9338 23.1048Z" fill="white"/>
<path d="M89.9161 28.4381C89.6043 28.4381 89.3292 28.3842 89.0911 28.2764C88.8586 28.163 88.6771 28.0099 88.5467 27.8171C88.4163 27.6186 88.351 27.3862 88.351 27.1196C88.351 26.8701 88.4049 26.6461 88.5127 26.4477C88.6261 26.2492 88.799 26.0819 89.0315 25.9458C89.264 25.8097 89.5561 25.7133 89.9076 25.6566L91.0708 25.4648C91.2991 25.4272 91.5068 25.6033 91.5068 25.8348C91.5068 26.017 91.3758 26.1728 91.1963 26.2042L90.0948 26.3966C89.8396 26.442 89.6525 26.5242 89.5334 26.6433C89.4143 26.7567 89.3548 26.9041 89.3548 27.0856C89.3548 27.2614 89.42 27.406 89.5504 27.5194C89.6865 27.6272 89.8594 27.681 90.0693 27.681C90.3301 27.681 90.5569 27.6243 90.7497 27.5109C90.9482 27.3975 91.1013 27.2472 91.209 27.0601C91.3168 26.8673 91.3707 26.6546 91.3707 26.4221V25.2398C91.3707 25.013 91.2856 24.8287 91.1155 24.6869C90.951 24.5395 90.7299 24.4658 90.452 24.4658C90.1968 24.4658 89.9729 24.5338 89.7801 24.6699C89.7286 24.7058 89.6808 24.7446 89.6367 24.7864C89.4464 24.9668 89.166 25.0816 88.9314 24.9644C88.7224 24.8598 88.6204 24.6081 88.7609 24.4213C88.824 24.3373 88.8972 24.2585 88.9805 24.1851C89.1733 24.0093 89.3973 23.8732 89.6525 23.7768C89.9133 23.6804 90.1883 23.6322 90.4775 23.6322C90.8405 23.6322 91.1608 23.7002 91.4387 23.8363C91.7222 23.9724 91.9406 24.1624 92.0937 24.4062C92.2524 24.6444 92.3318 24.9223 92.3318 25.2398V27.8767C92.3318 28.1303 92.1262 28.336 91.8725 28.336H91.8029C91.5877 28.336 91.4132 28.1615 91.4132 27.9463V27.5877C91.4132 27.5425 91.4529 27.5076 91.4977 27.5134C91.5506 27.5203 91.5794 27.5787 91.5498 27.6232C91.4519 27.7704 91.3326 27.9003 91.192 28.0128C91.0276 28.1489 90.8376 28.2538 90.6221 28.3275C90.4123 28.4012 90.177 28.4381 89.9161 28.4381Z" fill="white"/>
<path d="M95.363 28.387C94.881 28.387 94.5068 28.2509 94.2402 27.9787C93.9737 27.7065 93.8405 27.3238 93.8405 26.8304V25.0059C93.8405 24.7828 93.6596 24.6019 93.4364 24.6019C93.2133 24.6019 93.0324 24.421 93.0324 24.1978V23.8618C93.0324 23.7914 93.0895 23.7343 93.16 23.7343C93.3755 23.7343 93.5427 23.6719 93.6618 23.5471C93.7809 23.4224 93.8405 23.2523 93.8405 23.0368C93.8405 22.8395 94.0004 22.6795 94.1977 22.6795H94.321C94.5865 22.6795 94.8016 22.8947 94.8016 23.1601V23.2111C94.8016 23.5001 95.0358 23.7343 95.3247 23.7343H95.4141C95.6536 23.7343 95.8479 23.9285 95.8479 24.1681C95.8479 24.4076 95.6536 24.6019 95.4141 24.6019H95.3247C95.0358 24.6019 94.8016 24.8361 94.8016 25.125V26.7879C94.8016 26.9467 94.8271 27.0828 94.8782 27.1962C94.9292 27.3039 95.0114 27.389 95.1249 27.4514C95.2383 27.5081 95.3857 27.5364 95.5672 27.5364C95.6125 27.5364 95.6636 27.5336 95.7203 27.5279C95.8065 27.5193 95.8819 27.5867 95.8819 27.6734V28.0701C95.8819 28.2227 95.7697 28.3522 95.6182 28.37C95.5218 28.3813 95.4367 28.387 95.363 28.387Z" fill="white"/>
<path d="M97.3004 28.336C97.035 28.336 96.8199 28.1208 96.8199 27.8554V24.2148C96.8199 23.9494 97.035 23.7343 97.3004 23.7343C97.5659 23.7343 97.781 23.9494 97.781 24.2148V27.8554C97.781 28.1208 97.5659 28.336 97.3004 28.336ZM97.3004 23.1048C97.035 23.1048 96.8199 22.8897 96.8199 22.6242V22.4796C96.8199 22.2142 97.035 21.999 97.3004 21.999C97.5659 21.999 97.781 22.2142 97.781 22.4796V22.6242C97.781 22.8897 97.5659 23.1048 97.3004 23.1048Z" fill="white"/>
<path d="M100.679 28.336C100.414 28.336 100.177 28.174 100.08 27.9278L98.6958 24.3946C98.5714 24.0773 98.8054 23.7343 99.1462 23.7343C99.3488 23.7343 99.5298 23.8604 99.6001 24.0503L100.803 27.3059C100.836 27.3929 100.771 27.4854 100.678 27.4854C100.586 27.4854 100.521 27.3929 100.553 27.3059L101.756 24.0525C101.826 23.8613 102.009 23.7343 102.213 23.7343C102.556 23.7343 102.792 24.0803 102.666 24.3999L101.277 27.9287C101.18 28.1744 100.943 28.336 100.679 28.336Z" fill="white"/>
<path d="M105.659 28.4381C105.2 28.4381 104.791 28.3331 104.434 28.1233C104.082 27.9078 103.807 27.6186 103.609 27.2557C103.41 26.8871 103.311 26.476 103.311 26.0224C103.311 25.5574 103.41 25.1462 103.609 24.789C103.813 24.4317 104.085 24.1511 104.426 23.9469C104.766 23.7371 105.151 23.6322 105.582 23.6322C105.928 23.6322 106.237 23.6917 106.509 23.8108C106.782 23.9299 107.011 24.0943 107.198 24.3042C107.386 24.5083 107.527 24.7436 107.624 25.0102C107.726 25.2767 107.777 25.5602 107.777 25.8607C107.777 25.9345 107.774 26.011 107.768 26.0904C107.759 26.2217 107.642 26.3116 107.51 26.3116H104.451C104.24 26.3116 104.068 26.1402 104.068 25.9288C104.068 25.7174 104.24 25.546 104.451 25.546H106.885C106.984 25.546 107.026 25.6708 106.947 25.7301C106.872 25.7873 106.76 25.7192 106.762 25.6247C106.765 25.4543 106.735 25.2977 106.671 25.1548C106.58 24.9336 106.439 24.7606 106.246 24.6359C106.059 24.5055 105.838 24.4403 105.582 24.4403C105.327 24.4403 105.1 24.5055 104.902 24.6359C104.703 24.7606 104.55 24.9421 104.443 25.1803C104.35 25.3807 104.305 25.619 104.309 25.8952C104.311 25.9856 104.309 26.076 104.307 26.1664C104.301 26.4222 104.346 26.6493 104.443 26.8474C104.562 27.0799 104.726 27.2614 104.936 27.3918C105.151 27.5222 105.395 27.5875 105.667 27.5875C105.945 27.5875 106.181 27.5251 106.373 27.4003C106.444 27.3556 106.51 27.3062 106.57 27.252C106.752 27.0888 107.012 26.9989 107.231 27.1061C107.451 27.2139 107.553 27.4805 107.399 27.672C107.34 27.746 107.273 27.8171 107.198 27.8852C107.011 28.0553 106.785 28.1914 106.518 28.2935C106.257 28.3899 105.971 28.4381 105.659 28.4381Z" fill="white"/>
</svg>
