<svg width="170" height="9" viewBox="0 0 170 9" fill="none" xmlns="http://www.w3.org/2000/svg">
<path d="M156.39 1.08065C152.674 0.843602 148.958 0.669299 145.242 0.467111C144.016 0.397391 142.783 0.397417 141.557 0.362557C138.896 0.285865 136.234 0.21614 133.573 0.139448C132.093 0.0976164 130.606 0.0488175 129.126 0.0139576C128.694 0.00698561 128.269 0 127.837 0C126.871 0 125.906 0.0139218 124.94 0.0208938C120.551 0.0278658 116.155 0.0348514 111.766 0.0348514C110.718 0.0348514 109.676 0.0627377 108.628 0.0766817C106.036 0.111542 103.451 0.153397 100.866 0.188257C97.9437 0.230089 95.028 0.243999 92.106 0.327663C87.38 0.453159 82.6604 0.585661 77.9344 0.711156C75.1966 0.787848 72.4652 0.829656 69.7274 0.94818C65.0142 1.15734 60.3072 1.35953 55.5939 1.56172C53.0213 1.67327 50.4423 1.76392 47.8697 1.92428C42.9976 2.22407 38.1255 2.51687 33.2535 2.81667C30.6491 2.97702 28.0447 3.09555 25.4467 3.33957C20.5936 3.79275 15.747 4.24593 10.8939 4.69911C9.84582 4.79672 8.79771 4.89432 7.74961 4.99193C5.6534 5.18714 3.5699 5.49393 1.48005 5.75189C1.34665 5.77281 1.21961 5.79373 1.08622 5.80768C0.838482 5.88437 0.616158 6.02379 0.431946 6.22598C0.158804 6.52578 0 6.94411 0 7.3694C0 7.79469 0.158804 8.21298 0.431946 8.51975C0.679679 8.79166 1.11162 9.04269 1.48005 8.99388C4.00184 8.68014 6.51729 8.35245 9.03909 8.11541C11.383 7.89927 13.7206 7.67617 16.0646 7.46004C18.6181 7.22299 21.1717 6.98593 23.7252 6.74888C24.7543 6.65127 25.7833 6.52579 26.8187 6.46305C30.8015 6.21903 34.7843 5.98195 38.7671 5.73793C41.2508 5.58455 43.7345 5.43816 46.2182 5.28478C47.2472 5.22203 48.2699 5.14533 49.299 5.09652C53.2436 4.92222 57.1947 4.76185 61.1393 4.6015C63.5341 4.50389 65.9225 4.39931 68.3173 4.3017C69.124 4.26684 69.9244 4.225 70.7311 4.20409C74.9934 4.09254 79.2557 3.98798 83.5179 3.8834C85.9 3.82065 88.2757 3.76487 90.6577 3.70212C91.5026 3.68121 92.3538 3.64633 93.1986 3.63936C97.5943 3.59055 101.99 3.54178 106.386 3.49297C109.13 3.45811 111.868 3.43021 114.612 3.43719C119.28 3.45113 123.949 3.45809 128.612 3.47204C129.533 3.47204 130.454 3.5139 131.375 3.54876C133.954 3.63242 136.527 3.71608 139.106 3.79974C141.037 3.86249 142.968 3.92521 144.905 3.98796C146.277 4.02979 147.643 4.14136 149.015 4.22502C153.048 4.46207 157.082 4.71308 161.109 4.98499C162.132 5.05471 163.155 5.13835 164.177 5.22201C165.276 5.30568 166.375 5.39631 167.468 5.52878C167.639 5.55667 167.804 5.59155 167.976 5.63338C168.408 5.73099 168.821 5.7031 169.208 5.45908C169.564 5.229 169.831 4.84554 169.945 4.4063C170.174 3.486 169.666 2.50292 168.827 2.24496C168.09 2.02186 167.328 1.93126 166.572 1.84759C166.051 1.79182 165.537 1.72907 165.016 1.67329C164.019 1.56174 163.015 1.50593 162.018 1.42227C160.144 1.2898 158.264 1.19917 156.39 1.08065Z" fill="#F36B37"/>
</svg>
