<svg width="192" height="99" viewBox="0 0 192 99" fill="none" xmlns="http://www.w3.org/2000/svg">
<path d="M144.895 9.38085C144.899 9.20981 144.902 9.04035 144.907 8.86774C142.736 8.61143 140.57 8.25917 138.395 8.11184C108.818 6.12583 80.3113 10.7564 53.0782 22.7656C41.2057 28.0006 29.976 34.5304 20.2354 43.4284C16.5381 46.8061 13.0125 50.6137 10.2434 54.8319C3.8312 64.5939 5.61213 73.623 15.2368 79.9901C19.4003 82.7429 24.1491 84.7388 28.8589 86.3109C38.9944 89.6966 49.5177 90.8051 60.084 91.2019C85.2979 92.1485 110.058 89.1267 134.274 82.0302C147.283 78.2207 159.618 72.7496 170.538 64.266C175.015 60.7875 179.068 56.857 181.933 51.7739C186.707 43.3081 185.283 35.0432 177.871 28.9163C175.574 27.0193 173.061 25.3392 170.467 23.9266C158.203 17.2507 145.177 15.3126 131.62 17.0928C128.722 17.4726 125.852 18.059 122.959 18.4831C121.159 18.7467 119.619 18.1453 119.289 16.1085C119.004 14.3574 120.069 13.2008 121.648 12.7541C124.463 11.9566 127.266 10.9565 130.143 10.5877C135.033 9.96133 139.975 9.7603 144.895 9.38085ZM179.433 21.4451C180.893 22.7348 182.152 23.7929 183.355 24.9193C191.264 32.3261 193.293 42.4465 188.872 52.4855C186.764 57.2734 183.628 61.2562 179.981 64.8295C171.667 72.976 161.902 78.7966 151.354 82.9629C117.746 96.2318 82.8609 100.409 47.0322 96.8901C37.5259 95.9575 28.1846 93.9314 19.299 90.0012C14.3873 87.8275 9.84542 85.03 6.14683 80.9058C-0.00233616 74.0479 -1.44043 66.2068 1.59752 57.5032C3.64404 51.6373 7.27663 46.8856 11.4456 42.5522C18.8446 34.8564 27.3994 28.7678 36.5559 23.6674C70.0728 5.00016 105.983 -1.7045 143.831 1.88731C154.105 2.86198 164.087 5.36325 173.377 10.365C175.332 11.4166 177.257 12.5826 179.039 13.926C182.594 16.608 182.632 17.6046 179.433 21.4451Z" fill="#A53838"/>
</svg>
