<svg width="187" height="158" viewBox="0 0 187 158" fill="none" xmlns="http://www.w3.org/2000/svg">
<path d="M148.372 -1.44922C148.29 -12.0147 141.946 -21.496 131.818 -24.9364C93.9295 -37.8011 55.6018 -50.7805 16.8351 -63.8743C16.2984 -64.0462 16.1214 -64.402 16.304 -64.9418L23.6458 -86.4734C23.8283 -86.9841 24.1733 -87.1537 24.6808 -86.982C61.5252 -74.4316 99.4184 -61.609 138.36 -48.5141C142.616 -47.0844 145.893 -45.3304 148.194 -43.2521C153.787 -38.1969 156.534 -31.8339 156.436 -24.163C156.373 -19.3956 153.935 -15.1701 153.934 -10.3674C153.93 1.80859 160.102 10.0384 172.451 14.3221C183.335 18.0912 193.913 21.6403 204.186 24.9696C204.327 25.0154 204.458 25.0888 204.571 25.1853C204.683 25.2818 204.776 25.3996 204.843 25.5319C204.91 25.6642 204.949 25.8083 204.96 25.9558C204.971 26.1034 204.952 26.2515 204.904 26.3915L197.589 47.7574C197.557 47.854 197.505 47.943 197.437 48.0191C197.369 48.0952 197.286 48.1568 197.194 48.2002C197.101 48.2436 197.001 48.268 196.898 48.2719C196.796 48.2757 196.694 48.259 196.598 48.2227C188.021 45.0983 178.812 41.9978 168.971 38.9212C162.163 36.7931 157.468 34.6759 154.884 32.5698C148.326 27.2268 145.347 20.179 145.948 11.4264C146.245 7.00067 148.398 3.05696 148.372 -1.44922Z" fill="#EDDDB8"/>
<path d="M131.369 52.3673C136.043 38.9395 128.101 25.1828 115.482 20.8844C75.8532 7.40009 37.6768 -5.51846 0.952422 -17.8713C0.611122 -17.9867 0.49931 -18.2185 0.617049 -18.5666L8.20268 -40.6026C8.29035 -40.8618 8.47539 -41.0762 8.71709 -41.1987C8.95879 -41.3212 9.23735 -41.3417 9.4915 -41.2557C47.904 -28.2424 86.2162 -15.2928 124.428 -2.40701C137.245 1.91341 143.784 15.4492 139.689 28.506C134.908 43.8073 142.678 56.4759 157.074 61.3158C167.879 64.9509 178.531 68.5491 189.03 72.1103C189.127 72.1433 189.207 72.2144 189.252 72.308C189.298 72.4016 189.304 72.51 189.27 72.6095L181.669 94.9532C181.633 95.0581 181.578 95.1551 181.506 95.2386C181.434 95.3221 181.347 95.3904 181.25 95.4395C181.153 95.4886 181.048 95.5176 180.941 95.5248C180.834 95.5319 180.727 95.5171 180.627 95.4811C170.258 91.8246 159.144 88.065 147.284 84.2026C143.173 82.8618 140.024 81.1301 137.836 79.0073C130.797 72.1805 128.025 61.9931 131.369 52.3673Z" fill="#EDDDB8"/>
<path d="M106.562 71.0376C104.123 69.3891 101.422 68.054 98.4584 67.0322C84.3593 62.1661 69.809 57.2347 54.8074 52.2377C54.2906 52.0629 54.119 51.719 54.2924 51.2062L61.4598 29.974C61.6715 29.3481 62.0912 29.1462 62.719 29.3682C77.4691 34.4738 91.6735 39.2593 105.332 43.7245C110.64 45.4619 114.44 47.3867 116.732 49.4988C124.238 56.4407 126.834 66.1682 123.688 75.8571C119.511 88.6844 126.609 101.853 139.331 106.403C149.76 110.115 161.05 113.963 173.202 117.948C173.288 117.975 173.368 118.019 173.437 118.077C173.506 118.136 173.563 118.207 173.604 118.287C173.645 118.367 173.67 118.455 173.676 118.544C173.683 118.634 173.672 118.724 173.643 118.809L166.247 140.414C166.041 141.023 165.633 141.219 165.023 141.003C155.263 137.566 145.458 134.259 135.61 131.083C129.802 129.205 125.624 127.158 123.075 124.939C114.75 117.648 112.698 107.784 115.906 97.5644C118.85 88.1703 115.149 76.8193 106.562 71.0376Z" fill="#EDDDB8"/>
<path d="M106.909 131.893C108.32 142.786 114.266 149.999 124.746 153.534C135.357 157.114 146.24 160.845 157.393 164.726C157.796 164.863 157.93 165.131 157.795 165.531L150.25 187.965C150.203 188.103 150.105 188.217 149.976 188.282C149.846 188.348 149.698 188.358 149.562 188.312C139.586 184.73 129.983 181.501 120.754 178.627C114.185 176.574 109.575 174.345 106.922 171.942C99.1209 164.873 96.5824 154.413 100.135 144.213C103.304 135.104 99.6095 124.727 92.8579 118.713C90.0829 116.238 84.7236 113.727 76.78 111.178C64.0613 107.104 51.422 102.838 38.8619 98.3818C38.733 98.3343 38.6279 98.2375 38.5691 98.1121C38.5103 97.9867 38.5025 97.8426 38.5472 97.7105L46.1991 75.0893C46.2362 74.9796 46.3146 74.889 46.4172 74.8373C46.5199 74.7856 46.6382 74.7771 46.7463 74.8136C61.214 79.8066 75.9603 84.7699 90.985 89.7035C102.12 93.366 109.222 101.417 109.489 113.443C109.626 119.792 106.074 125.443 106.909 131.893Z" fill="#EDDDB8"/>
<path d="M91.3073 170.622C89.9932 185.66 96.4883 195.509 110.793 200.17C120.659 203.389 130.92 206.845 141.574 210.538C141.811 210.622 142.006 210.797 142.115 211.025C142.224 211.253 142.24 211.515 142.159 211.756L134.853 233.483C134.793 233.662 134.664 233.81 134.495 233.895C134.326 233.979 134.132 233.992 133.954 233.932C122.144 229.957 110.479 226.016 98.9588 222.11C85.3749 217.5 80.0695 202.978 84.7587 189.679C86.9525 183.453 89.0961 177.058 91.1896 170.494C91.2075 170.441 91.2428 170.423 91.2954 170.441C91.3305 170.453 91.3406 170.481 91.3256 170.525C91.3166 170.552 91.3105 170.584 91.3073 170.622Z" fill="#EDDDB8"/>
</svg>
