<svg width="140" height="120" viewBox="0 0 140 120" fill="none" xmlns="http://www.w3.org/2000/svg">
<path fill-rule="evenodd" clip-rule="evenodd" d="M8 4L12 6L8 8L6 12L4 8L0 6L4 4L6 0L8 4Z" fill="#DAF3F4"/>
<path fill-rule="evenodd" clip-rule="evenodd" d="M32 4L36 6L32 8L30 12L28 8L24 6L28 4L30 0L32 4Z" fill="#DAF3F4"/>
<path fill-rule="evenodd" clip-rule="evenodd" d="M56 4L60 6L56 8L54 12L52 8L48 6L52 4L54 0L56 4Z" fill="#DAF3F4"/>
<path fill-rule="evenodd" clip-rule="evenodd" d="M80 4L84 6L80 8L78 12L76 8L72 6L76 4L78 0L80 4Z" fill="#DAF3F4"/>
<path fill-rule="evenodd" clip-rule="evenodd" d="M104 4L108 6L104 8L102 12L100 8L96 6L100 4L102 0L104 4Z" fill="#DAF3F4"/>
<path fill-rule="evenodd" clip-rule="evenodd" d="M128 4L132 6L128 8L126 12L124 8L120 6L124 4L126 0L128 4Z" fill="#DAF3F4"/>
<path fill-rule="evenodd" clip-rule="evenodd" d="M8 28L12 30L8 32L6 36L4 32L0 30L4 28L6 24L8 28Z" fill="#DAF3F4"/>
<path fill-rule="evenodd" clip-rule="evenodd" d="M32 28L36 30L32 32L30 36L28 32L24 30L28 28L30 24L32 28Z" fill="#DAF3F4"/>
<path fill-rule="evenodd" clip-rule="evenodd" d="M56 28L60 30L56 32L54 36L52 32L48 30L52 28L54 24L56 28Z" fill="#DAF3F4"/>
<path fill-rule="evenodd" clip-rule="evenodd" d="M80 28L84 30L80 32L78 36L76 32L72 30L76 28L78 24L80 28Z" fill="#DAF3F4"/>
<path fill-rule="evenodd" clip-rule="evenodd" d="M104 28L108 30L104 32L102 36L100 32L96 30L100 28L102 24L104 28Z" fill="#DAF3F4"/>
<path fill-rule="evenodd" clip-rule="evenodd" d="M128 28L132 30L128 32L126 36L124 32L120 30L124 28L126 24L128 28Z" fill="#DAF3F4"/>
<path fill-rule="evenodd" clip-rule="evenodd" d="M8 52L12 54L8 56L6 60L4 56L0 54L4 52L6 48L8 52Z" fill="#DAF3F4"/>
<path fill-rule="evenodd" clip-rule="evenodd" d="M32 52L36 54L32 56L30 60L28 56L24 54L28 52L30 48L32 52Z" fill="#DAF3F4"/>
<path fill-rule="evenodd" clip-rule="evenodd" d="M56 52L60 54L56 56L54 60L52 56L48 54L52 52L54 48L56 52Z" fill="#DAF3F4"/>
<path fill-rule="evenodd" clip-rule="evenodd" d="M80 52L84 54L80 56L78 60L76 56L72 54L76 52L78 48L80 52Z" fill="#DAF3F4"/>
<path fill-rule="evenodd" clip-rule="evenodd" d="M104 52L108 54L104 56L102 60L100 56L96 54L100 52L102 48L104 52Z" fill="#DAF3F4"/>
<path fill-rule="evenodd" clip-rule="evenodd" d="M128 52L132 54L128 56L126 60L124 56L120 54L124 52L126 48L128 52Z" fill="#DAF3F4"/>
<path fill-rule="evenodd" clip-rule="evenodd" d="M8 76L12 78L8 80L6 84L4 80L0 78L4 76L6 72L8 76Z" fill="#DAF3F4"/>
<path fill-rule="evenodd" clip-rule="evenodd" d="M32 76L36 78L32 80L30 84L28 80L24 78L28 76L30 72L32 76Z" fill="#DAF3F4"/>
<path fill-rule="evenodd" clip-rule="evenodd" d="M56 76L60 78L56 80L54 84L52 80L48 78L52 76L54 72L56 76Z" fill="#DAF3F4"/>
<path fill-rule="evenodd" clip-rule="evenodd" d="M80 76L84 78L80 80L78 84L76 80L72 78L76 76L78 72L80 76Z" fill="#DAF3F4"/>
<path fill-rule="evenodd" clip-rule="evenodd" d="M104 76L108 78L104 80L102 84L100 80L96 78L100 76L102 72L104 76Z" fill="#DAF3F4"/>
<path fill-rule="evenodd" clip-rule="evenodd" d="M128 76L132 78L128 80L126 84L124 80L120 78L124 76L126 72L128 76Z" fill="#DAF3F4"/>
<path fill-rule="evenodd" clip-rule="evenodd" d="M8 100L12 102L8 104L6 108L4 104L0 102L4 100L6 96L8 100Z" fill="#DAF3F4"/>
<path fill-rule="evenodd" clip-rule="evenodd" d="M32 100L36 102L32 104L30 108L28 104L24 102L28 100L30 96L32 100Z" fill="#DAF3F4"/>
<path fill-rule="evenodd" clip-rule="evenodd" d="M56 100L60 102L56 104L54 108L52 104L48 102L52 100L54 96L56 100Z" fill="#DAF3F4"/>
<path fill-rule="evenodd" clip-rule="evenodd" d="M80 100L84 102L80 104L78 108L76 104L72 102L76 100L78 96L80 100Z" fill="#DAF3F4"/>
<path fill-rule="evenodd" clip-rule="evenodd" d="M104 100L108 102L104 104L102 108L100 104L96 102L100 100L102 96L104 100Z" fill="#DAF3F4"/>
<path fill-rule="evenodd" clip-rule="evenodd" d="M128 100L132 102L128 104L126 108L124 104L120 102L124 100L126 96L128 100Z" fill="#DAF3F4"/>
</svg>
