<svg width="146" height="152" viewBox="0 0 146 152" fill="none" xmlns="http://www.w3.org/2000/svg">
<path d="M120.35 87.4C111.845 87.4 104.95 94.2053 104.95 102.6C104.95 110.995 111.845 117.8 120.35 117.8C128.855 117.8 135.75 110.995 135.75 102.6C135.75 94.2053 128.855 87.4 120.35 87.4Z" fill="#666666"/>
<path d="M104.95 102.6C96.4448 102.6 89.55 109.405 89.55 117.8C89.55 126.195 96.4448 133 104.95 133C113.455 133 120.35 126.195 120.35 117.8C120.35 109.405 113.455 102.6 104.95 102.6Z" fill="#161618"/>
<path d="M120.35 87.4C111.845 87.4 104.95 94.2053 104.95 102.6C104.95 110.995 111.845 117.8 120.35 117.8C128.855 117.8 135.75 110.995 135.75 102.6C135.75 94.2053 128.855 87.4 120.35 87.4Z" fill="#666666"/>
<path d="M104.95 102.6C96.4448 102.6 89.55 109.405 89.55 117.8C89.55 126.195 96.4448 133 104.95 133C113.455 133 120.35 126.195 120.35 117.8C120.35 109.405 113.455 102.6 104.95 102.6Z" fill="#161618"/>
<path d="M120.6 86.6C112.095 86.6 105.2 93.4053 105.2 101.8C105.2 110.195 112.095 117 120.6 117C129.105 117 136 110.195 136 101.8C136 93.4053 129.105 86.6 120.6 86.6Z" fill="#161618"/>
<path d="M42.35 87.4C33.8448 87.4 26.95 94.2053 26.95 102.6C26.95 110.995 33.8448 117.8 42.35 117.8C50.8552 117.8 57.75 110.995 57.75 102.6C57.75 94.2053 50.8552 87.4 42.35 87.4Z" fill="#666666"/>
<path d="M26.95 102.6C18.4448 102.6 11.55 109.405 11.55 117.8C11.55 126.195 18.4448 133 26.95 133C35.4552 133 42.35 126.195 42.35 117.8C42.35 109.405 35.4552 102.6 26.95 102.6Z" fill="#161618"/>
<path d="M42.35 87.4C33.8448 87.4 26.95 94.2053 26.95 102.6C26.95 110.995 33.8448 117.8 42.35 117.8C50.8552 117.8 57.75 110.995 57.75 102.6C57.75 94.2053 50.8552 87.4 42.35 87.4Z" fill="#666666"/>
<path d="M26.95 102.6C18.4448 102.6 11.55 109.405 11.55 117.8C11.55 126.195 18.4448 133 26.95 133C35.4552 133 42.35 126.195 42.35 117.8C42.35 109.405 35.4552 102.6 26.95 102.6Z" fill="#161618"/>
<path d="M42.4 87C33.8948 87 27 93.8053 27 102.2C27 110.595 33.8948 117.4 42.4 117.4C50.9052 117.4 57.8 110.595 57.8 102.2C57.8 93.8053 50.9052 87 42.4 87Z" fill="#161618"/>
<path d="M120.35 10.55C111.845 10.55 104.95 17.4448 104.95 25.95C104.95 34.4552 111.845 41.35 120.35 41.35C128.855 41.35 135.75 34.4552 135.75 25.95C135.75 17.4448 128.855 10.55 120.35 10.55Z" fill="#666666"/>
<path d="M104.95 25.95C96.4448 25.95 89.55 32.8448 89.55 41.35C89.55 49.8552 96.4448 56.75 104.95 56.75C113.455 56.75 120.35 49.8552 120.35 41.35C120.35 32.8448 113.455 25.95 104.95 25.95Z" fill="#161618"/>
<path d="M120.35 10.55C111.845 10.55 104.95 17.4448 104.95 25.95C104.95 34.4552 111.845 41.35 120.35 41.35C128.855 41.35 135.75 34.4552 135.75 25.95C135.75 17.4448 128.855 10.55 120.35 10.55Z" fill="#666666"/>
<path d="M104.95 25.95C96.4448 25.95 89.55 32.8448 89.55 41.35C89.55 49.8552 96.4448 56.75 104.95 56.75C113.455 56.75 120.35 49.8552 120.35 41.35C120.35 32.8448 113.455 25.95 104.95 25.95Z" fill="#161618"/>
<path d="M120.6 10.2C112.095 10.2 105.2 17.0948 105.2 25.6C105.2 34.1052 112.095 41 120.6 41C129.105 41 136 34.1052 136 25.6C136 17.0948 129.105 10.2 120.6 10.2Z" fill="#161618"/>
<path d="M42.35 10.55C33.8448 10.55 26.95 17.4448 26.95 25.95C26.95 34.4552 33.8448 41.35 42.35 41.35C50.8552 41.35 57.75 34.4552 57.75 25.95C57.75 17.4448 50.8552 10.55 42.35 10.55Z" fill="#666666"/>
<path d="M26.95 25.95C18.4448 25.95 11.55 32.8448 11.55 41.35C11.55 49.8552 18.4448 56.75 26.95 56.75C35.4552 56.75 42.35 49.8552 42.35 41.35C42.35 32.8448 35.4552 25.95 26.95 25.95Z" fill="#161618"/>
<path d="M42.35 10.55C33.8448 10.55 26.95 17.4448 26.95 25.95C26.95 34.4552 33.8448 41.35 42.35 41.35C50.8552 41.35 57.75 34.4552 57.75 25.95C57.75 17.4448 50.8552 10.55 42.35 10.55Z" fill="#666666"/>
<path d="M26.6 26.2C18.0948 26.2 11.2 33.0948 11.2 41.6C11.2 50.1052 18.0948 57 26.6 57C35.1052 57 42 50.1052 42 41.6C42 33.0948 35.1052 26.2 26.6 26.2Z" fill="#161618"/>
<path d="M42.6 10.2C34.0948 10.2 27.2 17.0948 27.2 25.6C27.2 34.1052 34.0948 41 42.6 41C51.1052 41 58 34.1052 58 25.6C58 17.0948 51.1052 10.2 42.6 10.2Z" fill="#161618"/>
</svg>
