<svg width="159" height="109" viewBox="0 0 159 109" fill="none" xmlns="http://www.w3.org/2000/svg">
<g clip-path="url(#clip0_612_4953)">
<path d="M21.2 19.6L31.8 29.4L0 49L21.2 19.6Z" fill="#F0263C" fill-opacity="0.6"/>
<path d="M21.2 29.4L31.8 19.6L0 0L21.2 29.4Z" fill="#F0263C" fill-opacity="0.6"/>
<path d="M31.8 19.6L21.2 29.4L53 49L31.8 19.6Z" fill="#F0263C" fill-opacity="0.6"/>
<path d="M21.2 19.6L31.8 29.4L53 0L21.2 19.6Z" fill="#F0263C" fill-opacity="0.6"/>
<path d="M26.5 31.85C30.8907 31.85 34.45 28.5593 34.45 24.5C34.45 20.4407 30.8907 17.15 26.5 17.15C22.1093 17.15 18.55 20.4407 18.55 24.5C18.55 28.5593 22.1093 31.85 26.5 31.85Z" fill="#F0263C" fill-opacity="0.6"/>
</g>
<g clip-path="url(#clip1_612_4953)">
<path d="M74.2 19.6L84.8 29.4L53 49L74.2 19.6Z" fill="#F0263C" fill-opacity="0.6"/>
<path d="M74.2 29.4L84.8 19.6L53 0L74.2 29.4Z" fill="#F0263C" fill-opacity="0.6"/>
<path d="M84.8 19.6L74.2 29.4L106 49L84.8 19.6Z" fill="#F0263C" fill-opacity="0.6"/>
<path d="M74.2 19.6L84.8 29.4L106 0L74.2 19.6Z" fill="#F0263C" fill-opacity="0.6"/>
<path d="M79.5 31.85C83.8907 31.85 87.45 28.5593 87.45 24.5C87.45 20.4407 83.8907 17.15 79.5 17.15C75.1093 17.15 71.55 20.4407 71.55 24.5C71.55 28.5593 75.1093 31.85 79.5 31.85Z" fill="#F0263C" fill-opacity="0.6"/>
</g>
<g clip-path="url(#clip2_612_4953)">
<path d="M127.2 19.6L137.8 29.4L106 49L127.2 19.6Z" fill="#F0263C" fill-opacity="0.6"/>
<path d="M127.2 29.4L137.8 19.6L106 0L127.2 29.4Z" fill="#F0263C" fill-opacity="0.6"/>
<path d="M137.8 19.6L127.2 29.4L159 49L137.8 19.6Z" fill="#F0263C" fill-opacity="0.6"/>
<path d="M127.2 19.6L137.8 29.4L159 0L127.2 19.6Z" fill="#F0263C" fill-opacity="0.6"/>
<path d="M132.5 31.85C136.891 31.85 140.45 28.5593 140.45 24.5C140.45 20.4407 136.891 17.15 132.5 17.15C128.109 17.15 124.55 20.4407 124.55 24.5C124.55 28.5593 128.109 31.85 132.5 31.85Z" fill="#F0263C" fill-opacity="0.6"/>
</g>
<g clip-path="url(#clip3_612_4953)">
<path d="M21.2 78.4L31.8 88.6L0 109L21.2 78.4Z" fill="#F0263C" fill-opacity="0.6"/>
<path d="M21.2 88.6L31.8 78.4L0 58L21.2 88.6Z" fill="#F0263C" fill-opacity="0.6"/>
<path d="M31.8 78.4L21.2 88.6L53 109L31.8 78.4Z" fill="#F0263C" fill-opacity="0.6"/>
<path d="M21.2 78.4L31.8 88.6L53 58L21.2 78.4Z" fill="#F0263C" fill-opacity="0.6"/>
<path d="M26.5 91.15C30.8907 91.15 34.45 87.725 34.45 83.5C34.45 79.275 30.8907 75.85 26.5 75.85C22.1093 75.85 18.55 79.275 18.55 83.5C18.55 87.725 22.1093 91.15 26.5 91.15Z" fill="#F0263C" fill-opacity="0.6"/>
</g>
<g clip-path="url(#clip4_612_4953)">
<path d="M74.2 78.4L84.8 88.6L53 109L74.2 78.4Z" fill="#F0263C" fill-opacity="0.6"/>
<path d="M74.2 88.6L84.8 78.4L53 58L74.2 88.6Z" fill="#F0263C" fill-opacity="0.6"/>
<path d="M84.8 78.4L74.2 88.6L106 109L84.8 78.4Z" fill="#F0263C" fill-opacity="0.6"/>
<path d="M74.2 78.4L84.8 88.6L106 58L74.2 78.4Z" fill="#F0263C" fill-opacity="0.6"/>
<path d="M79.5 91.15C83.8907 91.15 87.45 87.725 87.45 83.5C87.45 79.275 83.8907 75.85 79.5 75.85C75.1093 75.85 71.55 79.275 71.55 83.5C71.55 87.725 75.1093 91.15 79.5 91.15Z" fill="#F0263C" fill-opacity="0.6"/>
</g>
<g clip-path="url(#clip5_612_4953)">
<path d="M127.2 78.4L137.8 88.6L106 109L127.2 78.4Z" fill="#F0263C" fill-opacity="0.6"/>
<path d="M127.2 88.6L137.8 78.4L106 58L127.2 88.6Z" fill="#F0263C" fill-opacity="0.6"/>
<path d="M137.8 78.4L127.2 88.6L159 109L137.8 78.4Z" fill="#F0263C" fill-opacity="0.6"/>
<path d="M127.2 78.4L137.8 88.6L159 58L127.2 78.4Z" fill="#F0263C" fill-opacity="0.6"/>
<path d="M132.5 91.15C136.891 91.15 140.45 87.725 140.45 83.5C140.45 79.275 136.891 75.85 132.5 75.85C128.109 75.85 124.55 79.275 124.55 83.5C124.55 87.725 128.109 91.15 132.5 91.15Z" fill="#F0263C" fill-opacity="0.6"/>
</g>
<defs>
<clipPath id="clip0_612_4953">
<rect width="53" height="49" fill="white"/>
</clipPath>
<clipPath id="clip1_612_4953">
<rect width="53" height="49" fill="white" transform="translate(53)"/>
</clipPath>
<clipPath id="clip2_612_4953">
<rect width="53" height="49" fill="white" transform="translate(106)"/>
</clipPath>
<clipPath id="clip3_612_4953">
<rect width="53" height="51" fill="white" transform="translate(0 58)"/>
</clipPath>
<clipPath id="clip4_612_4953">
<rect width="53" height="51" fill="white" transform="translate(53 58)"/>
</clipPath>
<clipPath id="clip5_612_4953">
<rect width="53" height="51" fill="white" transform="translate(106 58)"/>
</clipPath>
</defs>
</svg>
