<svg width="224" height="27" viewBox="0 0 224 27" fill="none" xmlns="http://www.w3.org/2000/svg">
<path d="M7.68272 21.1606C8.30025 20.6713 8.89239 20.122 9.48454 19.5928C10.1105 19.0336 10.7365 18.4743 11.354 17.9051C12.8175 16.557 14.2386 15.129 15.6513 13.701C15.2791 14.2902 14.9069 14.8793 14.5347 15.4685C14.1794 16.0377 13.8157 16.6069 13.4604 17.1861C13.2658 17.4957 13.0713 17.8053 12.8767 18.1148C12.6652 18.4444 12.4876 18.7939 12.3438 19.1634C12.2 19.5229 12.09 19.8923 11.9716 20.2618C11.777 20.871 12.0054 21.6499 12.3861 22.0993C12.5891 22.339 12.8175 22.4987 13.0882 22.5886C13.3673 22.6785 13.655 22.6785 13.9341 22.5886C14.2725 22.5187 14.6024 22.4688 14.9408 22.3889C15.1692 22.329 15.3806 22.2291 15.5921 22.1093C15.829 21.9994 16.0658 21.8796 16.2942 21.7398C17.064 21.3104 17.7577 20.7112 18.4598 20.152C19.2465 19.5229 20.0332 18.9037 20.803 18.2646C21.6067 17.5955 22.3934 16.8865 23.1885 16.1875C23.9076 15.5484 24.6266 14.8893 25.3287 14.2302C25.2611 14.3401 25.1934 14.4499 25.1173 14.5498C24.449 15.5983 23.7892 16.6369 23.1209 17.6854C22.7148 18.2846 22.2919 18.8738 21.9027 19.4929C21.6913 19.8225 21.5221 20.2219 21.4036 20.6114C21.3021 20.891 21.2345 21.1806 21.1922 21.4801C21.1499 21.7797 21.1076 22.0793 21.0568 22.3789C20.9807 22.8583 20.9891 23.2976 21.2091 23.727C21.3783 24.0765 21.7336 24.466 22.0888 24.5259C22.6133 24.6158 23.1378 24.7556 23.6707 24.8155C23.9245 24.8655 24.1867 24.8654 24.449 24.8255C24.7028 24.7955 24.9481 24.7456 25.2018 24.6857C25.684 24.5759 26.1408 24.3562 26.5892 24.1465C27.0544 23.9268 27.5112 23.6671 27.968 23.3975C29.8629 22.289 31.6816 21.0308 33.4581 19.6827C34.2786 19.0535 35.1076 18.4244 35.9113 17.7653C35.3699 18.5842 34.8285 19.3931 34.2956 20.2119C33.9572 20.7212 33.6019 21.2105 33.272 21.7198C32.9675 22.1892 32.7137 22.6485 32.536 23.1978C32.3838 23.6671 32.3161 24.1564 32.223 24.6458C32.0961 25.3048 32.2146 25.9639 32.6291 26.4532C32.8236 26.6829 33.0605 26.8427 33.3227 26.9326C33.6019 27.0225 33.881 27.0225 34.1602 26.9326C34.3125 26.9026 34.4647 26.8727 34.6085 26.8427C35.0992 26.7628 35.5898 26.6929 36.072 26.5931C36.588 26.4832 37.0787 26.2535 37.5608 26.0239C38.5675 25.5445 39.5149 24.9354 40.4539 24.2962C42.3234 23.018 44.1252 21.6399 45.8932 20.172C46.1554 19.9523 46.4092 19.7326 46.663 19.5129C46.6461 19.5428 46.6292 19.5628 46.6122 19.5928C46.4261 19.9024 46.2485 20.2519 46.1639 20.6313C46.0285 21.2006 46.147 21.8197 46.2485 22.3789C46.4177 23.3576 47.382 23.9168 48.1687 23.6671C48.6763 23.4973 49.1923 23.3476 49.6999 23.1778C50.3259 22.9681 50.918 22.6386 51.5102 22.309C52.6691 21.6699 53.7603 20.841 54.8431 20.0521C55.6721 19.443 56.4757 18.8039 57.2794 18.1648C58.8528 16.9265 60.4516 15.7182 61.9912 14.42C62.8625 13.691 63.7253 12.962 64.5966 12.233C64.216 12.7623 63.8437 13.2815 63.4631 13.8108C63.2939 14.0405 63.1247 14.2702 62.9471 14.4998C62.5579 14.9892 62.1942 15.4685 61.8643 16.0177C61.5175 16.5869 61.4244 17.296 61.399 17.975C61.4244 18.2746 61.4667 18.5742 61.5174 18.8738C61.5513 19.0036 61.5851 19.1334 61.6274 19.2632C61.712 19.5129 61.7797 19.7725 61.8389 20.0422C61.915 20.3717 62.0588 20.6613 62.2619 20.901C62.541 21.2305 63.0232 21.5301 63.4292 21.4702C64.4021 21.3204 65.3833 21.2305 66.3477 21.0607C67.2951 20.891 68.2087 20.4516 69.08 20.0022C70.8565 19.0835 72.5653 17.995 74.2402 16.8466C75.4499 16.0177 76.6342 15.1489 77.8185 14.2802C77.5393 14.6397 77.2601 14.9992 76.981 15.3686C76.4396 16.0777 75.8897 16.7867 75.3483 17.5057C74.9677 18.005 74.5786 18.4943 74.1979 18.9936C73.5888 19.7925 73.1066 20.6813 72.616 21.59C72.1677 22.4288 72.4299 23.767 73.1997 24.2164C73.4196 24.3462 73.6396 24.476 73.868 24.6058C74.0964 24.7456 74.3332 24.8455 74.5955 24.8854C75.1199 25.0252 75.6444 24.8954 76.1604 24.7756C76.6595 24.6558 77.1417 24.3562 77.5985 24.1165C78.1907 23.7969 78.7405 23.3875 79.3073 23.018C79.7725 22.7184 80.2547 22.4388 80.72 22.1392C81.2022 21.8297 81.6674 21.5001 82.1327 21.1806C82.9617 20.6014 83.8076 20.0122 84.6028 19.3631C84.8396 19.1734 85.0765 18.9736 85.3218 18.7839C85.2034 19.0336 85.0934 19.3032 84.975 19.5528C84.6958 20.152 84.6789 20.881 84.975 21.4801C85.2795 22.0893 85.7955 22.3889 86.3708 22.4288C86.7514 22.4588 87.1321 22.4887 87.5128 22.5087C87.775 22.4688 88.0457 22.4288 88.3079 22.3889C88.5448 22.319 88.7817 22.2391 89.0185 22.1392C89.5092 21.9595 89.9744 21.6899 90.4397 21.4302C90.9049 21.1706 91.3448 20.861 91.7847 20.5514C92.6898 19.9223 93.5865 19.2732 94.4917 18.6441C95.456 17.975 96.395 17.256 97.334 16.527C99.2711 15.0291 101.166 13.4613 103.069 11.9035C103.382 11.6438 103.695 11.3842 104.008 11.1245C103.941 11.2144 103.881 11.3143 103.814 11.4041C103.095 12.4527 102.384 13.5013 101.674 14.5498C101.318 15.0791 100.963 15.6083 100.608 16.1376C100.168 16.7967 99.6856 17.4058 99.2711 18.0849C99.0597 18.4244 98.882 18.7639 98.7128 19.1334C98.4844 19.6527 98.3237 20.2419 98.1376 20.7811C97.9853 21.2105 98.1038 21.7997 98.2899 22.1792C98.5606 22.7284 99.0766 23.0879 99.618 23.0779C99.8548 23.0779 100.083 23.0779 100.32 23.0879C100.557 23.0879 100.785 23.0979 101.022 23.0879C101.631 23.0779 102.232 22.8982 102.816 22.6785C103.298 22.4987 103.755 22.2491 104.22 22.0194C104.795 21.7298 105.345 21.3703 105.903 21.0208C108.01 19.6727 110.082 18.2646 112.104 16.7467C114.083 15.2688 116.012 13.7109 117.949 12.1631C118.905 11.4042 119.844 10.6152 120.775 9.81635C120.749 9.8563 120.715 9.90623 120.69 9.94618C120.14 10.7551 119.599 11.5539 119.057 12.3728C118.711 12.8921 118.364 13.3814 118 13.8807C117.865 14.0705 117.738 14.2702 117.628 14.4899C117.543 14.7095 117.467 14.9393 117.399 15.1689C117.349 15.4186 117.332 15.6682 117.365 15.9179C117.382 16.3173 117.501 16.6469 117.602 17.0163C117.839 17.8652 118.541 18.3944 119.303 18.1548C120.233 17.8552 121.172 17.6055 122.094 17.266C122.999 16.9365 123.871 16.4471 124.725 15.9678C125.816 15.3686 126.891 14.7096 127.948 14.0405C129.276 13.2116 130.613 12.4028 131.924 11.544C133.159 10.7351 134.394 9.9262 135.629 9.12731C135.265 9.52675 134.902 9.93621 134.538 10.3357C133.497 11.494 132.448 12.6424 131.416 13.8108C130.266 15.119 129.098 16.4072 127.973 17.7353C127.288 18.5442 126.603 19.3531 125.926 20.162C125.478 20.6913 124.962 21.1307 124.539 21.6899C124.412 21.8796 124.285 22.0693 124.175 22.2691C124.082 22.4788 123.998 22.6985 123.921 22.9281C123.879 23.1678 123.845 23.4175 123.82 23.6671C123.837 24.0266 123.871 24.3861 123.904 24.7456C123.938 25.175 124.023 25.5345 124.294 25.8541C124.632 26.2635 125.114 26.3933 125.579 26.2535C126.366 26.0338 127.161 25.8341 127.948 25.6244C128.743 25.4047 129.505 25.0951 130.257 24.7456C131.898 23.9767 133.472 23.008 135.028 22.0094C135.731 21.56 136.433 21.1307 137.118 20.6613C137.659 20.2818 138.209 19.9123 138.751 19.5329C139.36 19.1134 139.969 18.684 140.586 18.2646C140.392 18.4643 140.206 18.6541 140.011 18.8438C139.774 19.0535 139.537 19.2732 139.317 19.5029C139.182 19.6926 139.055 19.8924 138.92 20.0921C138.835 20.3118 138.759 20.5414 138.683 20.7611C138.607 21.0907 138.607 21.4202 138.683 21.7498C138.691 22.0094 138.759 22.2591 138.877 22.4888C139.14 23.1179 139.546 23.6372 140.129 23.8568C140.899 24.1464 141.694 24.0266 142.464 23.767C142.887 23.6272 143.31 23.3975 143.716 23.1878C144.114 22.9781 144.511 22.7684 144.917 22.5587C146.11 21.9895 147.286 21.4003 148.445 20.7312C149.68 20.0222 150.89 19.2433 152.108 18.4843C152.886 18.005 153.639 17.4557 154.4 16.9365C156.092 15.798 157.784 14.6796 159.442 13.4713C160.575 12.6424 161.709 11.8136 162.842 10.9847C162.445 11.514 162.047 12.0433 161.65 12.5725C161.235 13.1218 160.821 13.671 160.406 14.2102C159.949 14.7894 159.535 15.4086 159.137 16.0377C158.748 16.6469 158.469 17.3559 158.148 18.015C157.657 19.0335 158.097 20.4116 159.078 20.7112C159.433 20.8211 159.789 20.9409 160.144 21.0408C160.398 21.1007 160.652 21.1207 160.905 21.1207C161.159 21.0807 161.421 21.0408 161.675 20.9908C162.166 20.901 162.639 20.6613 163.088 20.4316C163.553 20.1919 164.001 19.9323 164.441 19.6627C165.262 19.1534 166.091 18.6541 166.911 18.1448C167.918 17.5157 168.899 16.8366 169.872 16.1476C170.727 15.5484 171.572 14.9392 172.418 14.3201C172.342 14.41 172.266 14.4998 172.19 14.5897C171.733 15.129 171.327 15.6982 170.913 16.2774C170.481 16.8965 170.126 17.5756 170.126 18.4144C170.126 18.8638 170.278 19.2233 170.447 19.6127C170.574 19.9223 170.972 20.3617 171.217 20.5215C171.285 20.5614 171.361 20.6114 171.429 20.6513C171.682 20.8211 171.953 20.911 172.249 20.911C172.562 20.9509 172.901 20.9309 173.214 20.841C173.856 20.6513 174.457 20.3018 175.049 19.9623C175.388 19.7725 175.734 19.5928 176.073 19.403C176.445 19.1933 176.8 18.9437 177.156 18.704C177.875 18.2247 178.568 17.6954 179.27 17.1761C179.533 16.9864 179.786 16.7867 180.032 16.577C179.846 16.8266 179.668 17.0663 179.482 17.3159C179.194 17.7054 178.907 18.0849 178.619 18.4743C178.188 19.0435 177.756 19.6028 177.35 20.192C176.953 20.7612 176.58 21.3703 176.208 21.9595C175.98 22.319 175.963 22.9082 176.056 23.3276C176.149 23.737 176.411 24.1964 176.75 24.3861C176.944 24.486 177.13 24.5958 177.316 24.7157C177.528 24.8255 177.748 24.9354 177.959 25.0352C178.188 25.0952 178.416 25.1351 178.653 25.165C179.034 25.1451 179.406 25.0852 179.778 25.0252C180.404 24.9254 181.03 24.5958 181.605 24.2962C182.214 23.9867 182.806 23.6372 183.407 23.3176C183.898 23.048 184.397 22.8083 184.887 22.5387C185.513 22.1992 186.131 21.8297 186.74 21.4702C187.73 20.871 188.728 20.2718 189.692 19.6227C190.42 19.1234 191.139 18.6341 191.866 18.1348C191.807 18.2347 191.748 18.3345 191.689 18.4444C191.274 19.1534 191.435 20.2718 191.951 20.851C192.416 21.3603 192.847 21.8996 193.473 22.1093C193.803 22.2191 194.184 22.2191 194.522 22.1991C195.013 22.1692 195.478 22.0094 195.935 21.8297C196.265 21.6998 196.578 21.5201 196.899 21.3703C197.255 21.1906 197.619 21.0308 197.974 20.851C198.811 20.4117 199.615 19.9223 200.402 19.3831C201.611 18.5742 202.787 17.6954 203.938 16.7867C203.87 17.0763 203.836 17.3659 203.836 17.6754C203.828 17.995 203.912 18.4044 204.005 18.714C204.064 18.8738 204.124 19.0336 204.174 19.1933C204.293 19.3831 204.42 19.5728 204.547 19.7625C204.783 20.112 205.19 20.2319 205.528 20.3817C205.68 20.4017 205.832 20.4316 205.985 20.4516C206.188 20.4815 206.382 20.4715 206.585 20.4216C206.974 20.3617 207.33 20.2818 207.702 20.162C209.098 19.7226 210.367 18.9437 211.635 18.1448C213.09 17.236 214.495 16.2274 215.899 15.2089C216.889 14.4899 217.862 13.7309 218.843 13.0019C218.919 12.942 218.995 12.8921 219.071 12.8322C219.029 12.9121 218.995 12.982 218.953 13.0618C218.428 14.0804 218.758 15.4485 219.613 16.0377C220.036 16.3273 220.56 16.4072 221.034 16.2574C221.457 16.1176 221.947 15.7481 222.133 15.2588C222.497 14.3101 222.827 13.3514 223.123 12.3728C223.259 11.9334 223.385 11.494 223.521 11.0547C223.597 10.795 223.681 10.5353 223.758 10.2757C223.961 9.63659 224.02 8.99749 223.994 8.31843C223.978 7.81913 223.834 7.35976 223.529 7.00026C223.123 6.52092 222.539 6.35118 221.99 6.52094C221.482 6.68072 221.017 6.88043 220.543 7.16004C220.129 7.40969 219.739 7.75922 219.35 8.04882C218.97 8.33842 218.581 8.60804 218.191 8.88765C217.565 9.33703 216.948 9.78641 216.322 10.2358C215.493 10.835 214.664 11.4341 213.826 12.0233C212.879 12.6923 211.94 13.3614 210.976 13.9905C210.502 14.3001 210.028 14.5797 209.546 14.8793C209.292 15.0391 209.03 15.1989 208.768 15.3487C209.47 14.3201 210.18 13.3115 210.908 12.3029C211.965 10.8449 213.074 9.4269 214.123 7.94895C214.317 7.71927 214.452 7.43967 214.529 7.12012C214.639 6.64078 214.579 6.11151 214.368 5.68211C214.156 5.26269 213.818 4.95311 213.42 4.82329C213.04 4.70345 212.532 4.73341 212.202 5.01303C210.468 6.471 208.759 7.96891 207.017 9.40692C205.976 10.2657 204.944 11.1445 203.895 11.9933C202.626 13.0219 201.357 14.0405 200.029 14.9692C199.183 15.5584 198.346 16.1376 197.475 16.6669C197.779 16.3173 198.084 15.9778 198.388 15.6283C199.057 14.8693 199.742 14.1304 200.419 13.3914C201.992 11.6738 203.557 9.93619 205.19 8.28848C205.283 8.1986 205.367 8.10874 205.452 8.01886C206.086 7.35978 206.019 6.11149 205.452 5.44242C205.164 5.10289 204.767 4.90319 204.361 4.90319C203.921 4.90319 203.591 5.11288 203.269 5.44242C203.176 5.5323 203.083 5.63216 202.982 5.72203C202.136 6.44103 201.239 7.08017 200.368 7.73925C199.666 8.2785 198.955 8.78778 198.245 9.31705C196.756 10.4155 195.258 11.494 193.77 12.5725C193.33 12.8921 192.881 13.1917 192.433 13.4912C191.367 14.2202 190.301 14.9492 189.235 15.6782C188.373 16.2674 187.501 16.8366 186.621 17.4058C185.53 18.0949 184.431 18.7739 183.314 19.393C182.823 19.6627 182.333 19.9123 181.834 20.182C181.47 20.3717 181.106 20.5814 180.751 20.7911C181.182 20.192 181.63 19.6028 182.062 19.0036C182.569 18.3046 183.077 17.6155 183.602 16.9365C184.346 15.9678 185.09 14.9892 185.843 14.0205C186.418 13.2715 187.011 12.5526 187.586 11.8136C188.034 11.2444 188.457 10.6552 188.872 10.046C189.235 9.49681 189.574 8.91761 189.921 8.35839C190.217 7.87905 190.157 7.13009 189.921 6.64077C189.794 6.39112 189.616 6.18139 189.405 6.0316C189.1 5.82189 188.635 5.70208 188.296 5.86185C188.06 5.9717 187.814 6.08154 187.586 6.20138C187.256 6.37114 186.977 6.56088 186.672 6.80055C186.342 7.06019 186.029 7.35978 185.699 7.61942C185.141 8.0688 184.583 8.51815 184.024 8.96753C183.153 9.67654 182.273 10.3656 181.394 11.0646C180.362 11.8835 179.313 12.6624 178.272 13.4613C177.722 13.8807 177.156 14.2902 176.597 14.6996C176.538 14.7495 176.47 14.7894 176.411 14.8394C177.046 14.0405 177.688 13.2416 178.331 12.4527C178.966 11.6738 179.592 10.8849 180.218 10.096C180.692 9.50678 181.157 8.90761 181.63 8.31843C182.172 7.63938 182.688 6.92039 183.204 6.21137C183.398 5.98169 183.525 5.72204 183.602 5.41247C183.711 4.94312 183.652 4.43383 183.449 4.01441C183.119 3.35533 182.358 2.90597 181.715 3.18558C181.453 3.29543 181.148 3.40528 180.911 3.56506C180.488 3.84467 180.099 4.1642 179.71 4.50372C179.44 4.73341 179.16 4.94314 178.881 5.15285C178.298 5.59224 177.722 6.0416 177.139 6.48099C176.047 7.29985 174.965 8.13869 173.856 8.94756C172.478 9.95616 171.099 10.9648 169.72 11.9734C168.646 12.7623 167.546 13.5112 166.446 14.2502C165.6 14.8194 164.729 15.3387 163.858 15.858C163.494 16.0777 163.139 16.3073 162.783 16.527C163.012 16.2274 163.24 15.9179 163.468 15.6183C163.841 15.109 164.213 14.6097 164.585 14.1004C165.101 13.4014 165.626 12.6924 166.142 11.9933C166.92 10.9348 167.69 9.87627 168.468 8.81774C168.823 8.33841 169.178 7.85908 169.542 7.38973C169.948 6.88044 170.32 6.34118 170.684 5.79194C171.006 5.29264 171.217 4.72343 171.336 4.11428C171.454 3.49514 171.344 2.85603 170.955 2.39667C170.49 1.84743 169.711 1.70762 169.145 2.11705C165.575 4.74341 162.005 7.37973 158.401 9.96614C157.775 10.4155 157.149 10.8849 156.515 11.3143C155.534 11.9634 154.561 12.6224 153.58 13.2715C150.805 15.129 148.03 17.0064 145.103 18.5143C145.569 18.0349 146.042 17.5656 146.516 17.0863C147.844 15.7281 149.198 14.39 150.543 13.0519C152.15 11.4541 153.757 9.8463 155.373 8.24852C156.151 7.4696 156.929 6.69069 157.708 5.91177C158.215 5.40248 158.723 4.8932 159.239 4.39389C159.247 4.38391 159.264 4.37392 159.273 4.36393C159.823 3.91456 160.33 3.41524 160.821 2.88598C161.294 2.37668 161.354 1.46796 161.041 0.838831C160.855 0.459358 160.542 0.179748 160.186 0.0599143C160.068 0.0199698 159.924 0 159.78 0C159.526 0 159.273 0.0698834 159.087 0.229661C158.452 0.788885 157.792 1.33814 157.183 1.93731C156.929 2.18696 156.676 2.43662 156.413 2.68627C155.644 3.30541 154.857 3.90458 154.087 4.52372C153.157 5.26269 152.218 5.97169 151.287 6.69069C149.232 8.2685 147.159 9.80636 145.086 11.3442C144.418 11.8435 143.758 12.3628 143.073 12.8322C141.906 13.6411 140.747 14.4499 139.588 15.2588C138.353 16.1176 137.109 16.9864 135.874 17.8452C135.282 18.2546 134.673 18.6441 134.073 19.0336C132.584 20.0022 131.078 20.9509 129.521 21.7498C128.904 22.0394 128.286 22.299 127.652 22.5087C127.686 22.4688 127.72 22.4288 127.753 22.3889C128.007 22.0793 128.261 21.7698 128.523 21.4602C129.09 20.7811 129.64 20.0821 130.215 19.413C131.399 18.0549 132.584 16.6968 133.76 15.3387C134.859 14.0804 135.984 12.8522 137.092 11.6139C137.566 11.0846 138.04 10.5553 138.514 10.0261C139.258 9.18722 140.019 8.37835 140.747 7.50956C141.094 7.10013 141.415 6.67074 141.711 6.21137C142.024 5.73204 142.295 5.23271 142.574 4.72342C143.149 3.69485 142.193 2.22691 141.204 2.62636C140.459 2.92594 139.749 3.24549 139.047 3.67489C138.531 3.98446 138.04 4.34395 137.524 4.66351C136.746 5.15283 135.959 5.64216 135.181 6.14146C134.03 6.86047 132.888 7.57947 131.738 8.29847C130.714 8.94757 129.674 9.5667 128.642 10.1958C126.696 11.3742 124.767 12.5725 122.762 13.6111C122.323 13.8208 121.891 14.0205 121.443 14.1903C121.561 14.0105 121.688 13.8208 121.807 13.6411C122.348 12.8222 122.906 12.0133 123.456 11.1944C124.006 10.3756 124.564 9.55673 125.114 8.73786C125.461 8.21858 125.816 7.69931 126.163 7.18003C126.468 6.74064 126.755 6.28127 127.043 5.8319C127.432 5.21276 127.72 4.54367 128.016 3.85463C128.236 3.33535 128.269 2.75617 128.016 2.24688C127.728 1.66768 127.051 1.26822 126.485 1.50788C126.053 1.69762 125.639 1.89736 125.25 2.17697C124.937 2.39666 124.649 2.69624 124.344 2.94589C123.981 3.25546 123.617 3.55505 123.253 3.85463C122.593 4.40387 121.925 4.9531 121.257 5.50234C119.853 6.66073 118.423 7.79915 117.01 8.93757C115.589 10.076 114.134 11.1445 112.696 12.253C111.334 13.3015 109.938 14.3001 108.542 15.2688C107.62 15.9079 106.673 16.4971 105.734 17.1062C104.77 17.7254 103.814 18.3645 102.816 18.9037C102.765 18.9237 102.714 18.9537 102.663 18.9736C102.866 18.684 103.069 18.3845 103.264 18.0849C103.746 17.3559 104.228 16.6369 104.719 15.9079C105.455 14.7994 106.208 13.7209 106.952 12.6225C107.578 11.7037 108.204 10.785 108.822 9.8663C109.304 9.1473 109.794 8.42829 110.277 7.70929C110.979 6.67074 111.613 5.57224 112.256 4.47377C112.476 4.10428 112.501 3.54508 112.408 3.12566C112.315 2.72622 112.062 2.25685 111.723 2.0771C111.495 1.95727 111.275 1.82745 111.03 1.76753C110.556 1.6477 110.074 1.75755 109.651 2.01719C109.084 2.3667 108.636 2.91594 108.145 3.39528C106.123 5.11289 104.084 6.81054 102.02 8.45825C100.768 9.45687 99.508 10.4555 98.256 11.4541C96.6318 12.7523 94.9738 13.9906 93.2904 15.1789C92.6898 15.5983 92.0808 16.0077 91.4801 16.4272C91.8185 16.0077 92.1569 15.5883 92.4953 15.1789C93.2735 14.2202 94.0602 13.2616 94.8385 12.3029C95.3291 11.6938 95.8197 11.0846 96.3104 10.4754C96.7503 9.9262 97.1648 9.357 97.5624 8.76782C97.9092 8.24854 98.1968 7.6993 98.4929 7.14008C98.8735 6.42108 98.7382 5.45242 98.2476 4.86324C98.053 4.63356 97.8161 4.47377 97.5454 4.3839C97.1648 4.26406 96.6488 4.29402 96.3188 4.57363C95.3037 5.45241 94.3056 6.35117 93.3158 7.25991C92.4276 8.0588 91.5478 8.86769 90.6427 9.64661C89.9067 10.2857 89.1623 10.9348 88.4264 11.5739C88.0795 11.8735 87.7327 12.1831 87.3774 12.4727C86.0324 13.5512 84.6958 14.6197 83.3508 15.6982C82.4287 16.4372 81.4729 17.1262 80.5085 17.8053C79.8148 18.3046 79.1043 18.7739 78.3852 19.2133C78.8336 18.6241 79.2734 18.035 79.7133 17.4458C80.6015 16.2674 81.5067 15.119 82.4034 13.9506C83.1816 12.942 83.9768 11.9634 84.7635 10.9747C85.2118 10.4155 85.6602 9.84631 86.1085 9.28709C87.039 8.11871 88.1557 7.17002 88.8662 5.78195C89.2215 5.08292 89.1116 4.14423 88.6209 3.57502C88.1472 3.0158 87.3266 2.84603 86.7514 3.29541C84.4505 5.05297 82.1158 6.75062 79.781 8.44826C78.6052 9.30706 77.4378 10.1559 76.2619 11.0147C74.9508 11.9734 73.6226 12.9121 72.2776 13.8208C71.5501 14.3101 70.8057 14.7695 70.0613 15.2189C69.2831 15.6882 68.5133 16.1376 67.7181 16.557C67.3797 16.7168 67.0498 16.8566 66.703 16.9964C66.2631 17.1761 65.8063 17.286 65.3495 17.3659C65.2987 17.3758 65.2564 17.3759 65.2057 17.3859C65.4341 17.0863 65.6625 16.7966 65.874 16.4871C66.2293 15.9778 66.5761 15.4785 66.9314 14.9692C67.422 14.2702 67.9042 13.5811 68.4033 12.8921C69.0885 11.9334 69.7737 10.9847 70.4589 10.0261C71.0933 9.14727 71.7362 8.28849 72.3622 7.39973C72.7937 6.80056 73.1997 6.1814 73.5973 5.54229C73.9695 4.95311 74.2994 4.33396 74.6547 3.72481C75.0438 3.05574 74.8746 2.06712 74.4178 1.51788C73.9356 0.948671 73.1405 0.808867 72.5568 1.23827C72.1338 1.53785 71.7024 1.83745 71.2879 2.15701C70.755 2.56644 70.2474 3.01581 69.7399 3.46519C69.3169 3.83468 68.8939 4.20417 68.471 4.56367C67.5066 5.38253 66.5338 6.21135 65.5694 7.03021C64.0383 8.32841 62.4903 9.60666 60.9507 10.8949C59.5803 12.0333 58.1845 13.1118 56.7887 14.2003C55.9005 14.8993 55.0038 15.5983 54.1156 16.2974C53.6334 16.6768 53.1343 17.0264 52.6352 17.3859C52.2715 17.6555 51.8993 17.9151 51.5355 18.1648C53.9126 14.6896 56.3488 11.2743 58.8105 7.87904C59.0643 7.52953 59.2335 7.16006 59.2335 6.68072C59.2335 6.23135 59.0812 5.80193 58.8105 5.48238C58.2353 4.80332 57.3555 4.86324 56.7803 5.48238C56.3065 5.99167 55.8413 6.53092 55.3422 7.01025C55.063 7.27988 54.7754 7.5595 54.4963 7.82912C54.0141 8.28848 53.5404 8.75782 53.0582 9.21718C51.9839 10.2358 50.9011 11.2543 49.8268 12.2729C48.4564 13.4912 47.0944 14.6996 45.7325 15.9179C44.6412 16.8865 43.4992 17.7853 42.3572 18.674C41.4605 19.3731 40.53 20.0122 39.5995 20.6613C38.6605 21.3104 37.7216 21.9495 36.7318 22.4888C37.2732 21.6599 37.8146 20.8211 38.3475 19.9822C39.4811 18.3245 40.5977 16.6469 41.7735 15.0291C42.6533 13.8208 43.5331 12.6125 44.4128 11.4041C44.8612 10.795 45.318 10.1859 45.7748 9.58669C46.0708 9.19723 46.3754 8.81773 46.6799 8.43826C46.7899 8.3384 46.8998 8.23855 47.0014 8.13869C47.3059 7.85908 47.6104 7.57945 47.9065 7.27987C48.211 6.9703 48.4564 6.61082 48.7101 6.24133C48.8878 6.03162 49.0147 5.77197 49.0823 5.48238C49.1838 5.04299 49.1331 4.55366 48.9385 4.1642C48.7524 3.78473 48.431 3.49515 48.0757 3.37532C47.7373 3.26547 47.2467 3.28542 46.9591 3.54506C46.6884 3.79472 46.4092 4.04437 46.1385 4.29402C45.7578 4.65352 45.4026 5.03301 45.0473 5.43246C44.7766 5.74203 44.5059 6.06157 44.2436 6.39112C43.753 6.84049 43.2624 7.28987 42.7717 7.73925C41.7566 8.62802 40.733 9.51679 39.7179 10.3956C38.8974 11.1146 38.0515 11.7736 37.214 12.4627C36.1481 13.3414 35.0907 14.2402 34.0079 15.0791C32.6545 16.1276 31.301 17.1861 29.9052 18.1648C29.22 18.6441 28.5179 19.0835 27.8073 19.5229C27.0798 19.9722 26.3692 20.4316 25.6248 20.8311C25.2188 21.0108 24.8212 21.1706 24.4067 21.2804C24.4743 21.1606 24.542 21.0408 24.6097 20.9209C25.1849 20.0521 25.7432 19.1933 26.2931 18.3046C26.733 17.5955 27.1644 16.8765 27.6212 16.1775C28.5094 14.8094 29.4061 13.4413 30.2943 12.0732C30.9203 11.1245 31.5463 10.1759 32.1807 9.22717C32.5191 8.71788 32.849 8.21859 33.1874 7.70929C33.7119 6.92039 34.1687 6.08153 34.6339 5.25268C34.9808 4.63354 34.8454 3.7448 34.414 3.24549C33.991 2.74619 33.2297 2.56643 32.7137 2.98584C32.2484 3.36532 31.7747 3.73482 31.3264 4.15423C31.0557 4.40389 30.785 4.65354 30.5227 4.90319C30.0659 5.3326 29.6091 5.76198 29.1439 6.19138C28.1203 7.14006 27.0967 8.08875 26.0732 9.03744C24.8381 10.1459 23.6115 11.2544 22.3765 12.3728C21.3444 13.3015 20.2955 14.1903 19.2381 15.0691C18.8659 15.3786 18.4937 15.6782 18.113 15.9778C18.426 15.4685 18.7474 14.9492 19.0604 14.4399C19.6779 13.4413 20.287 12.4327 20.9045 11.4341C21.2768 10.8349 21.6405 10.2258 22.0127 9.61665C22.4103 8.97754 22.791 8.31844 23.1462 7.63938C23.5608 6.85048 23.8145 5.9617 24.1106 5.1029C24.1867 4.78334 24.1867 4.46379 24.1106 4.14424C24.0345 3.83467 23.9076 3.57504 23.7215 3.34536C23.2308 2.76616 22.478 2.6663 21.8689 3.06575C21.4036 3.36533 20.9638 3.66489 20.5323 4.03437C20.0079 4.49374 19.5341 5.00304 19.0435 5.51233C18.6628 5.91178 18.2653 6.29126 17.8761 6.68072C17.2332 7.31984 16.5988 7.95895 15.9559 8.58808C13.7142 10.805 11.4894 13.0519 9.18847 15.1889C8.46097 15.848 7.71656 16.4971 6.9806 17.1462C6.62531 17.4557 6.26156 17.7653 5.89782 18.0549C6.20235 17.4557 6.49842 16.8566 6.80296 16.2574C7.40356 15.0591 8.02109 13.8807 8.63015 12.6924C9.19692 11.5839 9.75524 10.4654 10.3136 9.347C10.6265 8.72786 10.9311 8.09873 11.2525 7.49956C11.6247 6.81052 12.0054 6.16145 12.2592 5.4025C12.3776 5.043 12.5299 4.64355 12.5214 4.24411C12.513 3.92455 12.4707 3.61498 12.4284 3.30541C12.3438 2.75617 11.887 2.3068 11.4556 2.15701C10.9988 2.00722 10.432 2.147 10.1021 2.57641C8.81626 4.27405 7.57275 6.02163 6.32078 7.75921C6.18543 7.6993 6.03316 7.67934 5.88936 7.67934C5.5679 7.67934 5.14494 7.83912 4.93346 8.14869C4.20596 9.22719 3.47001 10.2957 2.75097 11.3942C1.88813 12.7223 1.0422 14.0605 0.187815 15.3886C-0.0913404 15.828 -0.0321255 16.557 0.187815 17.0064C0.416215 17.4558 0.889932 17.8452 1.35519 17.7953C1.55821 17.7753 1.7697 17.7553 1.97272 17.7154C2.23496 17.6455 2.44644 17.5356 2.66638 17.3859C2.39568 17.8752 2.10807 18.3345 1.87121 18.8438C1.69356 19.2333 1.59205 19.6527 1.52437 20.0821C1.44824 20.5614 1.4567 21.0408 1.43978 21.5201C1.39749 22.7284 2.48027 23.6571 3.44463 23.3176C4.21442 23.048 4.99267 22.8383 5.72863 22.4688C6.42229 22.0993 7.05674 21.6499 7.68272 21.1606Z" fill="#F46B37"/>
</svg>
